<?xml version="1.0" encoding="utf-8" standalone="no"?>
<!DOCTYPE svg PUBLIC "-//W3C//DTD SVG 1.1//EN"
  "http://www.w3.org/Graphics/SVG/1.1/DTD/svg11.dtd">
<!-- Created with matplotlib (http://matplotlib.org/) -->
<svg height="277pt" version="1.1" viewBox="0 0 275 277" width="275pt" xmlns="http://www.w3.org/2000/svg" xmlns:xlink="http://www.w3.org/1999/xlink">
 <defs>
  <style type="text/css">
*{stroke-linecap:butt;stroke-linejoin:round;stroke-miterlimit:100000;}
  </style>
 </defs>
 <g id="figure_1">
  <g id="patch_1">
   <path d="M 0 277.003648 
L 275.491929 277.003648 
L 275.491929 0 
L 0 0 
z
" style="fill:#ffffff;"/>
  </g>
  <g id="axes_1">
   <g id="patch_2">
    <path d="M 11.373292 265.843775 
L 265.787754 265.843775 
L 265.787754 11.290222 
L 11.373292 11.290222 
z
" style="fill:#ffffff;"/>
   </g>
   <g id="line2d_1">
    <path clip-path="url(#p98c0895286)" d="M 138.647918 138.501824 
L 136.612874 138.606621 
L 134.577387 138.931146 
L 132.484667 139.5169 
L 130.915061 140.145899 
L 129.18677 141.058414 
L 127.503802 142.215817 
L 126.004323 143.534637 
L 124.606635 145.10023 
L 123.509338 146.66453 
L 122.545718 148.432897 
L 121.79766 150.270429 
L 121.241932 152.225605 
L 120.897985 154.237713 
L 120.763181 156.409692 
L 120.857938 158.566058 
L 121.192788 160.817611 
L 121.796067 163.156193 
L 122.606054 165.349124 
L 123.75713 167.704185 
L 124.902114 169.579134 
L 126.468332 171.692115 
L 128.020299 173.43911 
L 129.859941 175.191439 
L 131.988908 176.894123 
L 134.217156 178.383609 
L 136.716659 179.765796 
L 139.016872 180.810196 
L 141.688331 181.785681 
L 144.170919 182.487716 
L 147.286072 183.115742 
L 149.926669 183.443359 
L 153.347752 183.604533 
L 156.508916 183.499268 
L 159.173147 183.224778 
L 162.386167 182.668305 
L 165.654785 181.84573 
L 168.672084 180.849477 
L 171.629283 179.641542 
L 174.303157 178.339548 
L 177.159746 176.710745 
L 179.485067 175.186686 
L 182.143869 173.201429 
L 184.843488 170.884786 
L 187.02578 168.754667 
L 189.30909 166.233353 
L 191.513064 163.454682 
L 193.613259 160.407536 
L 195.236517 157.705194 
L 196.851745 154.611204 
L 198.1919 151.617993 
L 199.444453 148.301024 
L 200.347834 145.422847 
L 201.239895 141.884566 
L 201.941946 138.099345 
L 202.393999 134.328103 
L 202.600249 130.817697 
L 202.58122 126.620044 
L 202.324105 122.892587 
L 201.864903 119.318411 
L 201.119936 115.404469 
L 200.263053 112.006997 
L 199.140903 108.4263 
L 197.676197 104.58762 
L 196.189908 101.292711 
L 194.310206 97.700449 
L 192.203566 94.213028 
L 190.042622 91.070799 
L 187.473512 87.772679 
L 185.378669 85.365447 
L 182.47296 82.369014 
L 179.482586 79.633259 
L 176.840093 77.465526 
L 173.312982 74.887534 
L 170.44403 73.025689 
L 166.673845 70.863803 
L 163.593143 69.315294 
L 159.968259 67.72289 
L 155.985944 66.238524 
L 152.623578 65.187367 
L 148.704414 64.182836 
L 144.840827 63.414736 
L 141.042576 62.866739 
L 136.982092 62.501665 
L 132.894792 62.360101 
L 128.552285 62.455347 
L 124.905778 62.730507 
L 121.439352 63.158359 
L 117.717724 63.80061 
L 113.144748 64.855246 
L 108.8967 66.106459 
L 105.459298 67.318928 
L 101.442426 68.974748 
L 97.328232 70.955112 
L 93.405087 73.1336 
L 90.382197 75.022545 
L 87.13283 77.276834 
L 83.701301 79.93624 
L 80.439059 82.763984 
L 77.358267 85.742188 
L 74.423198 88.903766 
L 71.475942 92.457893 
L 68.625011 96.339658 
L 66.443551 99.678396 
L 64.193596 103.551122 
L 62.192922 107.475232 
L 60.291475 111.78587 
L 58.877853 115.517634 
L 57.551071 119.64155 
L 56.428815 123.892273 
L 55.550334 128.111261 
L 54.84113 132.784066 
L 54.434952 136.968535 
L 54.234366 141.504369 
L 54.253429 145.197084 
L 54.458901 149.204475 
L 54.886061 153.439129 
L 55.578531 157.93332 
L 56.489598 162.288378 
L 57.494102 166.126255 
L 58.740609 170.100169 
L 60.363582 174.466766 
L 61.930884 178.108118 
L 63.769615 181.874296 
L 65.899656 185.733013 
L 68.244953 189.507832 
L 70.571931 192.869307 
L 73.469458 196.62824 
L 76.288198 199.913156 
L 79.333666 203.1197 
L 82.442125 206.080115 
L 85.305168 208.563977 
L 89.13131 211.564427 
L 92.451969 213.905176 
L 96.317659 216.354355 
L 99.698978 218.274939 
L 104.245497 220.559158 
L 108.034384 222.22077 
L 112.774903 224.011832 
L 117.365064 225.459396 
L 122.216601 226.699261 
L 126.770555 227.603437 
L 131.288683 228.260348 
L 135.48996 228.66166 
L 140.198855 228.875361 
L 144.535934 228.853302 
L 149.061523 228.606788 
L 152.638715 228.249527 
L 157.501111 227.531013 
L 161.22348 226.796204 
L 165.219237 225.824438 
L 169.882038 224.442843 
L 174.293559 222.879387 
L 178.309449 221.227858 
L 182.557752 219.229224 
L 186.835383 216.936517 
L 191.131605 214.325992 
L 195.280789 211.482019 
L 198.945176 208.676598 
L 202.602233 205.567518 
L 205.624474 202.734336 
L 208.438381 199.852067 
L 211.98622 195.8279 
L 214.97847 192.031407 
L 217.613105 188.316271 
L 219.91547 184.718931 
L 222.32958 180.505061 
L 224.544049 176.121909 
L 226.408627 171.910545 
L 227.825417 168.271281 
L 229.341146 163.773017 
L 230.708526 158.88114 
L 231.627048 154.838136 
L 232.396379 150.567569 
L 233.046091 145.525499 
L 233.365811 141.532931 
L 233.522366 137.046888 
L 233.424074 131.561856 
L 233.12786 127.305124 
L 232.581892 122.649754 
L 231.727151 117.620611 
L 230.778038 113.34179 
L 229.529826 108.765321 
L 228.288387 104.921489 
L 226.418963 99.974707 
L 224.381186 95.355416 
L 222.532144 91.656096 
L 220.15932 87.418999 
L 217.296811 82.891482 
L 215.132615 79.80398 
L 212.119105 75.894481 
L 208.929202 72.167234 
L 205.267822 68.322108 
L 201.960361 65.186758 
L 197.838291 61.665216 
L 193.876821 58.63408 
L 189.699774 55.769198 
L 185.793245 53.366791 
L 181.840591 51.184658 
L 177.574615 49.088626 
L 172.991372 47.115294 
L 168.539224 45.457239 
L 163.514601 43.874969 
L 159.389868 42.794492 
L 154.668067 41.789931 
L 150.516969 41.105581 
L 146.198279 40.586396 
L 141.299062 40.231372 
L 136.619663 40.121886 
L 131.738432 40.24567 
L 127.252509 40.574274 
L 122.517163 41.146543 
L 117.517225 42.006315 
L 113.256691 42.951028 
L 108.943874 44.112175 
L 104.273052 45.610883 
L 99.98603 47.217203 
L 95.250208 49.262892 
L 90.821034 51.45061 
L 86.695993 53.744736 
L 82.710332 56.215914 
L 78.48256 59.1365 
L 74.221197 62.426742 
L 70.141438 65.945294 
L 66.970378 68.963686 
L 63.31843 72.794365 
L 59.96218 76.706048 
L 56.7868 80.820725 
L 54.165402 84.585173 
L 51.527248 88.788292 
L 49.013677 93.282115 
L 46.977601 97.376794 
L 45.103355 101.625383 
L 43.39855 106.037194 
L 41.800581 110.861223 
L 40.451887 115.746438 
L 39.576945 119.575631 
L 38.696089 124.394992 
L 38.031469 129.429995 
L 37.648149 134.029233 
L 37.467775 139.349711 
L 37.544961 144.128659 
L 37.822419 148.599968 
L 38.27082 152.845072 
L 39.105313 158.244762 
L 39.93223 162.307668 
L 41.209303 167.372105 
L 42.63591 172.036474 
L 44.391263 176.900703 
L 46.069759 180.945577 
L 48.170516 185.417238 
L 50.483077 189.776558 
L 52.938332 193.913605 
L 55.491659 197.793628 
L 58.464418 201.87446 
L 61.259156 205.35733 
L 64.638005 209.185726 
L 67.360878 212.008973 
L 70.645316 215.14379 
L 74.823077 218.755786 
L 77.630223 220.972625 
L 82.13838 224.217337 
L 86.109221 226.783202 
L 90.261505 229.200523 
L 93.894084 231.109241 
L 98.496735 233.270738 
L 102.994298 235.122802 
L 107.346331 236.684285 
L 112.256487 238.187352 
L 117.086323 239.409887 
L 121.916029 240.387969 
L 127.264215 241.19447 
L 132.288009 241.69335 
L 136.825407 241.931831 
L 141.366239 241.970554 
L 146.471599 241.775612 
L 150.135817 241.479454 
L 155.302454 240.837699 
L 159.900957 240.042327 
L 165.199913 238.857329 
L 169.438215 237.696176 
L 174.048016 236.20963 
L 178.91388 234.3762 
L 183.526056 232.373803 
L 187.360623 230.500936 
L 191.98958 227.970673 
L 196.252795 225.358993 
L 199.502139 223.171685 
L 203.39016 220.31015 
L 207.58634 216.891661 
L 211.369836 213.478211 
L 214.98157 209.884622 
L 218.332718 206.212185 
L 221.361036 202.566709 
L 224.010317 199.078425 
L 226.810828 195.028846 
L 229.659646 190.440972 
L 232.067902 186.096287 
L 233.77822 182.680115 
L 235.814891 178.146393 
L 237.859671 172.899932 
L 239.254837 168.74397 
L 240.710026 163.639062 
L 241.839069 158.788303 
L 242.853904 153.135435 
L 243.436477 148.63427 
L 243.879816 143.180132 
L 244.036882 138.124188 
L 243.964247 133.405525 
L 243.722409 129.219447 
L 243.158268 123.789192 
L 242.349699 118.592675 
L 241.488788 114.342469 
L 240.393036 109.904538 
L 239.307267 106.159514 
L 237.653227 101.253247 
L 235.766883 96.44826 
L 233.552642 91.542363 
L 231.928469 88.316976 
L 229.885373 84.608595 
L 227.103747 80.058953 
L 224.749177 76.57112 
L 221.808866 72.597119 
L 218.495549 68.541668 
L 215.705839 65.420963 
L 212.306188 61.930015 
L 208.643116 58.503397 
L 204.450831 54.95382 
L 200.482208 51.916802 
L 196.789792 49.344269 
L 192.505244 46.637033 
L 188.08188 44.129032 
L 183.523278 41.825415 
L 178.643487 39.653049 
L 173.643038 37.721608 
L 168.699415 36.088703 
L 163.685251 34.699872 
L 159.116234 33.659649 
L 154.162663 32.766877 
L 149.831748 32.181839 
L 145.079801 31.745955 
L 139.48332 31.505575 
L 134.427362 31.540605 
L 129.051086 31.840618 
L 124.1031 32.357881 
L 118.932613 33.149045 
L 113.494266 34.263831 
L 108.558081 35.534174 
L 104.418549 36.795916 
L 99.21445 38.647345 
L 95.145869 40.310445 
L 90.802968 42.306375 
L 86.081818 44.751226 
L 82.295623 46.933821 
L 78.604621 49.266428 
L 74.477595 52.134308 
L 70.537311 55.153172 
L 67.24493 57.908338 
L 63.901181 60.947736 
L 59.9332 64.911011 
L 56.824435 68.325969 
L 53.705532 72.070986 
L 51.032605 75.577192 
L 48.644876 78.981838 
L 45.732077 83.554556 
L 42.983651 88.397022 
L 40.848149 92.616587 
L 38.915562 96.887993 
L 37.14055 101.318185 
L 35.487554 106.054902 
L 34.14787 110.528998 
L 33.000694 115.065479 
L 32.025537 119.784789 
L 31.252138 124.61121 
L 30.674626 129.721066 
L 30.362403 134.349207 
L 30.248177 139.393286 
L 30.362355 144.295827 
L 30.706063 149.273613 
L 31.336989 154.645813 
L 32.180204 159.695488 
L 33.142159 164.202102 
L 34.585062 169.678365 
L 36.099082 174.45732 
L 37.908481 179.35437 
L 40.162101 184.621005 
L 42.318539 189.047322 
L 44.703612 193.424408 
L 47.375696 197.826832 
L 50.134637 201.930318 
L 52.268267 204.848945 
L 55.789229 209.258775 
L 59.378965 213.314102 
L 62.126842 216.161567 
L 66.046184 219.88831 
L 70.018175 223.311644 
L 73.3887 225.968872 
L 76.584995 228.29835 
L 80.123135 230.678234 
L 84.344087 233.265526 
L 88.576531 235.605616 
L 93.659216 238.1047 
L 98.055639 240.01085 
L 102.847511 241.834843 
L 108.184933 243.5715 
L 112.605192 244.78501 
L 117.185109 245.8356 
L 122.942703 246.8671 
L 128.256975 247.540629 
L 133.240519 247.93396 
L 138.342326 248.100462 
L 143.54936 248.025207 
L 147.737658 247.784689 
L 153.0758 247.243787 
L 158.672555 246.390603 
L 162.919852 245.543598 
L 168.102827 244.270241 
L 172.135028 243.091643 
L 177.069547 241.416582 
L 181.718696 239.593366 
L 186.608454 237.404688 
L 190.700439 235.346162 
L 195.653483 232.557369 
L 199.494994 230.152791 
L 204.027786 227.018679 
L 207.367845 224.484457 
L 210.608462 221.825192 
L 214.285003 218.544113 
L 218.203045 214.699456 
L 221.365079 211.297244 
L 224.352521 207.799346 
L 227.537981 203.715718 
L 230.649628 199.305703 
L 232.861221 195.866131 
L 235.585537 191.199058 
L 237.940846 186.683471 
L 240.078428 182.079544 
L 242.153464 176.984337 
L 243.607634 172.901833 
L 244.946294 168.607513 
L 246.140833 164.13223 
L 247.321401 158.720725 
L 248.131425 153.937937 
L 248.709262 149.332667 
L 249.116213 144.325912 
L 249.299651 138.921602 
L 249.205956 133.202164 
L 248.885632 128.254116 
L 248.357191 123.425342 
L 247.539904 118.190717 
L 246.550045 113.337023 
L 245.239248 108.153555 
L 243.642224 102.926002 
L 241.977672 98.271805 
L 240.143192 93.77912 
L 238.026835 89.192794 
L 235.380815 84.12148 
L 233.157876 80.298056 
L 230.682358 76.413078 
L 227.90877 72.443858 
L 224.891602 68.508214 
L 221.614679 64.612347 
L 218.47409 61.194469 
L 214.544159 57.292513 
L 210.217096 53.414301 
L 206.263986 50.206449 
L 202.566016 47.464112 
L 197.974893 44.373472 
L 193.932794 41.915535 
L 190.00493 39.744649 
L 186.026753 37.750136 
L 181.142023 35.564653 
L 177.393687 34.073862 
L 172.432585 32.336688 
L 166.741109 30.659501 
L 162.025857 29.514812 
L 156.774646 28.491984 
L 152.309315 27.825743 
L 146.698418 27.248284 
L 142.228784 26.992422 
L 137.428834 26.917609 
L 131.497917 27.110643 
L 125.922054 27.581292 
L 121.632543 28.136244 
L 116.489601 29.026559 
L 111.615529 30.101891 
L 107.256804 31.259943 
L 102.296846 32.811319 
L 97.640493 34.503497 
L 92.505519 36.648206 
L 88.072411 38.748695 
L 83.428641 41.213344 
L 79.559569 43.488191 
L 74.963157 46.473972 
L 70.659558 49.57433 
L 66.533093 52.853965 
L 62.376444 56.498134 
L 58.528219 60.217661 
L 55.268705 63.665598 
L 51.522676 68.019545 
L 48.691521 71.634858 
L 46.092503 75.244718 
L 42.892554 80.149945 
L 40.610676 84.028206 
L 38.174186 88.611486 
L 36.132671 92.900152 
L 34.058658 97.814863 
L 32.151553 103.026196 
L 30.705313 107.626482 
L 29.431313 112.393949 
L 28.239782 117.872044 
L 27.379948 123.002978 
L 26.814928 127.602183 
L 26.394188 133.028426 
L 26.236662 138.482425 
L 26.315752 143.245638 
L 26.678996 148.973577 
L 27.219364 153.83806 
L 27.91928 158.381734 
L 28.963628 163.614123 
L 30.137857 168.361751 
L 31.752903 173.786606 
L 33.459362 178.650671 
L 35.025397 182.581633 
L 37.246972 187.529744 
L 39.389 191.775924 
L 42.138575 196.654878 
L 44.842424 200.961563 
L 47.633967 204.998632 
L 50.75136 209.102488 
L 53.734488 212.693384 
L 57.645158 216.979251 
L 61.393261 220.701824 
L 64.891198 223.880392 
L 68.247028 226.691174 
L 72.167673 229.708384 
L 75.605834 232.13873 
L 80.284114 235.150669 
L 84.947884 237.842727 
L 88.921147 239.91032 
L 93.440803 242.026392 
L 97.89651 243.880962 
L 103.102833 245.772718 
L 107.346146 247.105442 
L 112.217945 248.413527 
L 117.578565 249.588162 
L 121.682235 250.305297 
L 127.142729 251.020429 
L 132.025595 251.432537 
L 137.521301 251.642664 
L 143.32239 251.574538 
L 147.372882 251.350258 
L 152.87329 250.811352 
L 158.348142 250.003305 
L 163.29178 249.035956 
L 168.33217 247.811077 
L 172.551637 246.594606 
L 176.378452 245.335508 
L 180.631236 243.755716 
L 186.012527 241.471002 
L 190.773902 239.1672 
L 195.461798 236.621253 
L 200.041509 233.846842 
L 204.39677 230.921699 
L 209.051835 227.454593 
L 213.074125 224.143437 
L 216.528514 221.038516 
L 220.094729 217.548254 
L 223.615544 213.779848 
L 226.642698 210.245241 
L 229.150687 207.079097 
L 232.527843 202.415663 
L 235.522945 197.816521 
L 238.052943 193.509148 
L 240.48013 188.916891 
L 242.672454 184.268946 
L 244.508265 179.893113 
L 246.32342 174.970415 
L 247.484021 171.392005 
L 248.923809 166.262474 
L 249.90429 162.101355 
L 250.876001 157.048204 
L 251.535698 152.612251 
L 252.035285 147.980023 
L 252.313003 143.980937 
L 252.45779 139.390489 
L 252.436842 135.562888 
L 252.247843 131.070597 
L 251.756326 125.417599 
L 251.146227 120.823049 
L 250.154853 115.283478 
L 249.289291 111.399549 
L 247.731908 105.616087 
L 246.333826 101.243844 
L 244.617084 96.562904 
L 242.899243 92.420161 
L 240.890871 88.083774 
L 238.414111 83.306619 
L 235.911648 78.974799 
L 232.911002 74.295222 
L 229.676858 69.755448 
L 226.711432 65.970026 
L 223.20563 61.884711 
L 219.999422 58.466085 
L 216.056438 54.621409 
L 212.549717 51.495424 
L 209.231808 48.764559 
L 204.718263 45.368251 
L 201.762938 43.326362 
L 196.599813 40.073862 
L 192.31975 37.657769 
L 188.232398 35.569723 
L 183.017332 33.196138 
L 178.347044 31.330607 
L 173.100633 29.511739 
L 168.401146 28.11969 
L 163.782302 26.961418 
L 159.414265 26.051582 
L 153.68378 25.124132 
L 149.52358 24.636209 
L 145.35751 24.301534 
L 140.083083 24.096718 
L 134.614662 24.141377 
L 129.008055 24.45912 
L 123.816832 25.000762 
L 120.219986 25.517339 
L 114.518097 26.577643 
L 110.651133 27.468907 
L 104.823123 29.083562 
L 100.512597 30.495253 
L 95.383062 32.427366 
L 90.743387 34.423042 
L 85.92869 36.75841 
L 81.644686 39.077867 
L 77.958409 41.268564 
L 72.987933 44.531179 
L 68.734143 47.631144 
L 64.409204 51.106632 
L 60.80918 54.277176 
L 56.842358 58.100624 
L 52.844966 62.3545 
L 49.751463 65.967144 
L 46.311446 70.371796 
L 43.677835 74.069384 
L 40.487691 79.008371 
L 37.700164 83.836697 
L 35.43993 88.200746 
L 33.22478 92.986472 
L 31.195961 97.962717 
L 29.719611 102.07475 
L 28.130596 107.167473 
L 26.778545 112.333724 
L 25.773127 117.007004 
L 24.87486 122.313776 
L 24.272493 127.191782 
L 23.846891 132.666667 
L 23.681562 138.58443 
L 23.778753 143.567071 
L 24.109071 148.742521 
L 24.672732 153.900087 
L 25.482285 159.104296 
L 26.43659 163.853878 
L 27.738019 169.106619 
L 29.303114 174.348051 
L 31.091082 179.444334 
L 32.728332 183.54265 
L 34.760206 188.08214 
L 37.110573 192.764386 
L 39.918332 197.750652 
L 42.806388 202.344219 
L 45.758369 206.592247 
L 48.497072 210.199118 
L 52.11985 214.555708 
L 55.238052 217.981686 
L 59.025134 221.795797 
L 62.559755 225.054212 
L 66.020762 227.994259 
L 70.376579 231.378668 
L 74.595947 234.354217 
L 78.573364 236.910947 
L 83.168312 239.589187 
L 87.960061 242.09122 
L 92.614147 244.256801 
L 97.069602 246.100461 
L 101.924806 247.867463 
L 107.120707 249.492071 
L 111.779655 250.724248 
L 116.77649 251.818053 
L 122.599092 252.804015 
L 127.864779 253.43454 
L 132.90097 253.809519 
L 137.907553 253.963498 
L 142.295182 253.919817 
L 147.510653 253.650587 
L 152.57578 253.161675 
L 158.277088 252.339609 
L 163.748314 251.274484 
L 168.541094 250.11304 
L 173.478255 248.686185 
L 177.723067 247.265582 
L 182.904796 245.27758 
L 188.201726 242.941271 
L 192.360058 240.878281 
L 196.87859 238.392641 
L 201.036692 235.864558 
L 205.598702 232.802891 
L 209.430902 229.976777 
L 213.850462 226.398412 
L 217.600676 223.063224 
L 221.602409 219.161492 
L 225.474911 214.998959 
L 228.494628 211.447101 
L 231.928401 207.025096 
L 234.893076 202.817689 
L 237.410635 198.902731 
L 240.073409 194.343118 
L 242.614907 189.486039 
L 244.694373 185.036594 
L 246.431071 180.889259 
L 247.913155 176.938983 
L 249.760183 171.270123 
L 251.220023 165.894819 
L 252.370033 160.708585 
L 253.200844 155.999961 
L 253.766136 151.869731 
L 254.263342 146.681515 
L 254.511292 141.987156 
L 254.566172 137.015715 
L 254.363795 131.270366 
L 253.923135 125.970148 
L 253.188287 120.361732 
L 252.296173 115.362116 
L 251.174445 110.359586 
L 249.966138 105.867121 
L 248.336836 100.711808 
L 246.819963 96.537669 
L 244.950678 91.976511 
L 243.038144 87.805971 
L 240.454562 82.771386 
L 238.467142 79.266792 
L 235.493669 74.496992 
L 232.273315 69.850061 
L 228.866775 65.410373 
L 225.266343 61.158092 
L 221.768074 57.393215 
L 218.161424 53.838462 
L 214.256158 50.317415 
L 210.481185 47.201821 
L 206.121848 43.919141 
L 202.154301 41.197605 
L 198.568662 38.938157 
L 193.720005 36.161993 
L 188.654756 33.579504 
L 184.084993 31.508875 
L 179.160437 29.536041 
L 174.161113 27.793224 
L 168.859309 26.217608 
L 164.490617 25.122028 
L 159.54442 24.095576 
L 154.009114 23.209158 
L 148.857273 22.627664 
L 143.022564 22.248063 
L 138.039714 22.156327 
L 133.25105 22.269369 
L 127.769147 22.641635 
L 122.318324 23.271246 
L 117.518536 24.043205 
L 113.422878 24.866203 
L 109.520556 25.794255 
L 103.716149 27.442216 
L 99.181415 28.960581 
L 94.50279 30.749191 
L 90.276115 32.568291 
L 85.340726 34.950637 
L 80.954546 37.31643 
L 76.360358 40.064265 
L 71.977195 42.964726 
L 68.150107 45.740082 
L 63.691414 49.288357 
L 59.365626 53.092805 
L 55.573004 56.761038 
L 51.508184 61.089935 
L 47.981694 65.233458 
L 45.256111 68.725264 
L 41.93096 73.390827 
L 39.486494 77.159951 
L 36.645838 81.985212 
L 34.034559 86.952481 
L 31.624565 92.132951 
L 29.642462 96.975665 
L 27.83087 102.049071 
L 26.403809 106.676951 
L 25.089404 111.696424 
L 23.999244 116.770622 
L 23.146086 121.818023 
L 22.482286 127.224471 
L 22.070079 132.683094 
L 21.913927 138.23124 
L 22.026571 143.891989 
L 22.408391 149.484832 
L 23.047027 154.973175 
L 23.944369 160.423912 
L 24.690658 164.05517 
L 26.213421 170.135111 
L 27.830527 175.43812 
L 29.561127 180.302242 
L 31.71904 185.577105 
L 34.031751 190.539096 
L 36.148676 194.612983 
L 38.491938 198.714201 
L 41.630373 203.671341 
L 44.701827 208.043702 
L 47.96753 212.268156 
L 51.029238 215.894048 
L 54.365204 219.528242 
L 57.686274 222.859549 
L 61.041988 225.968544 
L 65.36184 229.632749 
L 68.565103 232.128449 
L 72.325943 234.840037 
L 76.879108 237.83331 
L 80.802547 240.178344 
L 85.841706 242.896722 
L 90.613548 245.187712 
L 95.597344 247.305617 
L 100.313725 249.065691 
L 104.881214 250.554681 
L 109.489504 251.850676 
L 115.214727 253.182624 
L 120.006788 254.067735 
L 124.904881 254.761449 
L 130.254144 255.279822 
L 135.003979 255.533378 
L 140.045582 255.591268 
L 145.017168 255.435643 
L 150.454157 255.022629 
L 155.688733 254.38285 
L 159.703204 253.728816 
L 165.695556 252.482909 
L 170.204437 251.326824 
L 175.249435 249.802856 
L 179.319088 248.389586 
L 183.822825 246.625787 
L 189.229393 244.216732 
L 193.767492 241.933713 
L 198.257725 239.423639 
L 202.867688 236.566585 
L 206.563645 234.054165 
L 211.061448 230.705298 
L 215.521737 227.034794 
L 219.679411 223.260095 
L 223.155593 219.807463 
L 226.977905 215.653407 
L 230.22349 211.786263 
L 233.445044 207.584675 
L 236.518508 203.174488 
L 239.299198 198.773872 
L 241.80261 194.400207 
L 244.090047 189.97578 
L 245.856268 186.206382 
L 247.852066 181.466466 
L 249.597175 176.762294 
L 251.348833 171.281421 
L 252.584908 166.721053 
L 253.810345 161.259254 
L 254.691248 156.287249 
L 255.379862 151.079574 
L 255.796756 146.415573 
L 256.020965 141.949492 
L 256.064634 136.537822 
L 255.844061 130.891061 
L 255.387801 125.585236 
L 254.926746 121.894842 
L 254.011291 116.362812 
L 252.842528 110.921048 
L 251.672475 106.432506 
L 249.950549 100.857696 
L 247.947231 95.358081 
L 246.281844 91.338107 
L 243.878972 86.174035 
L 241.360943 81.370515 
L 238.533026 76.540856 
L 235.895653 72.46382 
L 232.661475 67.919823 
L 229.83652 64.293744 
L 225.97564 59.771683 
L 221.859505 55.418876 
L 218.527022 52.199398 
L 214.489973 48.619143 
L 210.175415 45.137385 
L 205.760606 41.90398 
L 201.157178 38.852343 
L 196.983103 36.343404 
L 193.058639 34.191891 
L 188.558154 31.955961 
L 183.473965 29.70915 
L 179.333959 28.086257 
L 174.98354 26.571202 
L 169.870822 25.02961 
L 164.83899 23.754927 
L 159.744979 22.701365 
L 155.118238 21.945533 
L 149.48111 21.277819 
L 144.174764 20.899431 
L 138.888409 20.761269 
L 133.483341 20.865556 
L 127.606269 21.261492 
L 123.109781 21.764924 
L 118.130096 22.528237 
L 113.333988 23.471764 
L 107.390037 24.932577 
L 102.387357 26.420719 
L 97.749954 28.020105 
L 93.660722 29.613536 
L 89.170143 31.570541 
L 84.776147 33.706709 
L 79.678692 36.477376 
L 76.318599 38.487435 
L 72.728351 40.808277 
L 67.761327 44.338236 
L 64.177221 47.137187 
L 59.982869 50.710947 
L 55.786553 54.647461 
L 52.474317 58.044225 
L 48.576497 62.418864 
L 45.103166 66.71817 
L 42.030138 70.896904 
L 39.335114 74.908107 
L 36.24252 79.999599 
L 33.802573 84.476892 
L 32.095973 87.912077 
L 29.858619 92.900075 
L 27.969183 97.676387 
L 26.061756 103.245745 
L 24.646044 108.103793 
L 23.343189 113.456295 
L 22.595473 117.155843 
L 21.649043 123.098835 
L 21.102588 127.9734 
L 20.723227 133.647912 
L 20.615871 138.678562 
L 20.779014 144.88428 
L 21.058833 148.896834 
L 21.539529 153.418054 
L 22.423993 159.261625 
L 23.392361 164.131664 
L 24.502232 168.720477 
L 25.990636 173.894552 
L 27.52701 178.4788 
L 29.163747 182.783354 
L 31.190537 187.515695 
L 33.638263 192.579504 
L 36.123755 197.170797 
L 38.958343 201.882927 
L 41.960389 206.388401 
L 45.216511 210.817472 
L 48.309382 214.657219 
L 52.068816 218.917784 
L 55.884118 222.850617 
L 59.74692 226.484957 
L 64.030465 230.156512 
L 68.16218 233.38023 
L 72.896501 236.730619 
L 77.663804 239.768907 
L 81.534729 242.008825 
L 86.82845 244.767524 
L 91.187078 246.792011 
L 95.593248 248.625467 
L 100.746995 250.512124 
L 106.17974 252.214342 
L 111.302707 253.561603 
L 116.085435 254.60136 
L 121.418307 255.519492 
L 126.39382 256.151816 
L 131.332311 256.56889 
L 136.841823 256.789351 
L 141.75562 256.769274 
L 147.403899 256.493652 
L 152.401944 256.023062 
L 158.280006 255.193613 
L 163.34925 254.234069 
L 168.490572 253.023776 
L 173.683228 251.551269 
L 178.063387 250.106467 
L 182.604424 248.40452 
L 187.585307 246.287227 
L 192.490361 243.93115 
L 197.235557 241.378496 
L 202.102691 238.459181 
L 206.74669 235.364431 
L 210.870048 232.339138 
L 215.1049 228.931793 
L 218.883692 225.60583 
L 222.359975 222.279755 
L 225.795638 218.709878 
L 228.679797 215.46755 
L 231.666189 211.840642 
L 234.671673 207.870596 
L 237.835154 203.280496 
L 240.793615 198.522175 
L 242.927411 194.745632 
L 245.339269 190.040438 
L 247.682284 184.897816 
L 249.411075 180.621619 
L 250.752521 176.925332 
L 252.599442 171.071937 
L 253.947423 165.951207 
L 255.067199 160.765658 
L 255.925107 155.729867 
L 256.595482 150.368767 
L 257.019583 145.005557 
L 257.190308 140.325643 
L 257.161474 135.064426 
L 256.92621 130.191849 
L 256.520531 125.6061 
L 255.745656 119.787962 
L 254.824984 114.698602 
L 253.542204 109.094359 
L 251.942866 103.407828 
L 250.095134 97.898176 
L 248.241956 93.115984 
L 246.170297 88.389327 
L 243.69163 83.366784 
L 241.39453 79.183537 
L 239.093725 75.35485 
L 236.041246 70.729091 
L 232.877305 66.383342 
L 229.601595 62.283136 
L 226.019602 58.191731 
L 222.248095 54.262911 
L 218.273141 50.486611 
L 213.97006 46.767654 
L 209.678492 43.397162 
L 205.494209 40.403041 
L 200.822718 37.369354 
L 196.785032 34.988669 
L 191.759089 32.314175 
L 186.633747 29.893912 
L 181.69798 27.837394 
L 176.225889 25.853856 
L 171.023885 24.242931 
L 165.839211 22.892432 
L 161.022498 21.858157 
L 155.64596 20.947341 
L 151.030735 20.366147 
L 145.374851 19.902481 
L 140.239259 19.716112 
L 134.086106 19.785412 
L 129.863598 20.017731 
L 124.428394 20.539718 
L 120.191084 21.122708 
L 114.613234 22.129532 
L 109.084354 23.402583 
L 104.901684 24.553147 
L 100.028582 26.104534 
L 94.928537 27.981215 
L 89.298513 30.369468 
L 84.778966 32.541625 
L 80.506656 34.817562 
L 75.530521 37.761059 
L 70.802434 40.874292 
L 66.063978 44.334896 
L 62.435558 47.239268 
L 58.290194 50.858243 
L 54.28862 54.693341 
L 50.775877 58.374947 
L 47.563837 62.036823 
L 44.061834 66.402737 
L 40.691951 71.040209 
L 37.701091 75.591334 
L 35.175559 79.825898 
L 32.731275 84.3491 
L 31.085734 87.685649 
L 28.642453 93.198279 
L 26.873011 97.742025 
L 25.017754 103.219987 
L 23.85945 107.174679 
L 22.600066 112.193397 
L 21.632839 116.867394 
L 20.794086 121.994021 
L 20.229656 126.6502 
L 19.797173 132.224233 
L 19.628392 137.625684 
L 19.668663 141.899176 
L 19.932457 147.203621 
L 20.339508 151.671782 
L 21.119482 157.449398 
L 21.972598 162.169118 
L 23.346945 168.177732 
L 24.569067 172.593659 
L 26.329317 178.028301 
L 28.349802 183.376175 
L 30.581386 188.527285 
L 33.140918 193.735731 
L 35.504659 198.044442 
L 38.195981 202.491531 
L 41.103233 206.85193 
L 44.287659 211.19508 
L 47.168081 214.796387 
L 50.915872 219.087521 
L 54.860556 223.19058 
L 59.220056 227.30127 
L 63.281466 230.781117 
L 67.205164 233.85824 
L 71.617685 237.017409 
L 75.848862 239.773771 
L 81.001292 242.800419 
L 85.247282 245.042837 
L 89.723146 247.17706 
L 94.061088 249.03333 
L 99.151418 250.959262 
L 102.994915 252.240955 
L 108.348518 253.789088 
L 113.932407 255.120315 
L 118.592764 256.016828 
L 123.600891 256.768095 
L 128.779158 257.318093 
L 134.379608 257.657008 
L 139.869621 257.733229 
L 144.842241 257.58397 
L 150.685355 257.142304 
L 155.35796 256.58006 
L 161.256641 255.600515 
L 166.193567 254.54411 
L 171.439583 253.178298 
L 176.837511 251.501877 
L 182.048261 249.611257 
L 186.194126 247.90665 
L 191.492107 245.455367 
L 196.179856 243.01503 
L 201.262539 240.058999 
L 205.491961 237.333096 
L 209.197371 234.729084 
L 214.089905 230.951833 
L 217.464776 228.098327 
L 221.821565 224.078058 
L 225.039126 220.83574 
L 228.231758 217.357736 
L 231.841975 213.065996 
L 235.316507 208.513169 
L 238.549628 203.827915 
L 241.609056 198.903177 
L 244.455275 193.779355 
L 246.863441 188.915846 
L 248.448317 185.374249 
L 250.391093 180.548524 
L 251.689952 176.932634 
L 253.477176 171.230574 
L 254.911699 165.724784 
L 256.108615 160.014643 
L 257.060969 153.983804 
L 257.626015 148.838459 
L 257.948762 144.081255 
L 258.084615 138.694258 
L 258.018881 134.402951 
L 257.672581 128.460247 
L 257.055499 122.729207 
L 256.413054 118.462613 
L 255.302108 112.744595 
L 253.919162 107.107472 
L 252.312753 101.694771 
L 250.828578 97.379151 
L 248.737287 92.054989 
L 246.519276 87.100689 
L 244.299027 82.668486 
L 241.977389 78.470917 
L 239.018126 73.63355 
L 235.883397 69.013035 
L 233.357589 65.600932 
L 229.828079 61.223079 
L 226.216393 57.145152 
L 222.377904 53.191989 
L 218.501767 49.546069 
L 214.467594 46.076594 
L 210.480516 42.938516 
L 206.528056 40.085735 
L 202.297306 37.292081 
L 198.363598 34.917097 
L 193.494848 32.252585 
L 188.53207 29.828102 
L 184.881743 28.221311 
L 179.912394 26.261572 
L 175.066639 24.591651 
L 170.070788 23.108183 
L 164.310084 21.685944 
L 160.486561 20.907204 
L 154.431162 19.936396 
L 150.093627 19.435042 
L 145.074659 19.053982 
L 139.685771 18.88041 
L 134.939433 18.928737 
L 130.448015 19.148175 
L 125.161432 19.624191 
L 120.352461 20.263974 
L 115.111528 21.189439 
L 109.584289 22.429496 
L 103.979396 23.972664 
L 98.309819 25.838335 
L 93.179054 27.803664 
L 87.966863 30.084802 
L 82.486985 32.812719 
L 77.641907 35.527129 
L 72.742676 38.585093 
L 68.574224 41.457 
L 64.097246 44.845485 
L 59.818813 48.409849 
L 55.639811 52.237431 
L 52.32104 55.552226 
L 48.915977 59.240909 
L 45.90627 62.77758 
L 42.584141 67.03046 
L 39.703418 71.066519 
L 37.018805 75.175889 
L 34.441541 79.503303 
L 32.086103 83.862116 
L 29.651958 88.882653 
L 27.396393 94.155728 
L 25.751518 98.515167 
L 24.232333 103.080241 
L 22.720222 108.375035 
L 21.482866 113.593787 
L 20.44268 119.089539 
L 19.756118 123.83453 
L 19.320436 127.906626 
L 18.94439 133.63813 
L 18.844459 139.518477 
L 18.994049 144.666375 
L 19.281131 148.872855 
L 19.795993 153.710013 
L 20.628078 159.229228 
L 21.485396 163.646374 
L 22.840925 169.313098 
L 24.18663 174.002327 
L 25.592877 178.266388 
L 27.239257 182.681136 
L 29.007468 186.91342 
L 31.666601 192.548822 
L 34.359667 197.589004 
L 37.365207 202.614454 
L 40.331901 207.085724 
L 43.852049 211.883245 
L 46.913503 215.68311 
L 50.727836 220.009301 
L 54.555949 223.960271 
L 58.564203 227.7341 
L 62.876849 231.430703 
L 65.848307 233.78072 
L 70.7249 237.322965 
L 76.000926 240.755758 
L 79.719637 242.947505 
L 84.903197 245.712885 
L 89.996303 248.123617 
L 95.094917 250.252611 
L 98.578222 251.551893 
L 103.255388 253.106895 
L 108.388488 254.572755 
L 114.55032 256.012461 
L 120.16494 257.030465 
L 125.499492 257.744949 
L 131.277676 258.246197 
L 137.005771 258.466627 
L 142.129875 258.431851 
L 146.422764 258.234007 
L 151.312019 257.820308 
L 156.185394 257.206301 
L 160.33475 256.522512 
L 166.053787 255.33225 
L 171.835029 253.828751 
L 176.325517 252.445092 
L 182.09571 250.377838 
L 186.318611 248.649054 
L 191.761149 246.136128 
L 195.619525 244.148876 
L 200.745576 241.225595 
L 204.831556 238.646833 
L 209.275361 235.569755 
L 213.677199 232.215074 
L 217.590209 228.949245 
L 221.039403 225.824368 
L 224.345636 222.587732 
L 227.361286 219.405355 
L 231.216917 214.971644 
L 234.324851 211.052538 
L 237.336762 206.906839 
L 240.053743 202.818225 
L 243.154429 197.657238 
L 245.905841 192.519445 
L 248.346968 187.383772 
L 250.487367 182.278446 
L 252.176483 177.702752 
L 253.759541 172.791926 
L 254.986345 168.381528 
L 256.185738 163.267772 
L 257.063871 158.678529 
L 257.936896 152.672375 
L 258.457465 147.301066 
L 258.723146 142.335421 
L 258.766137 136.131284 
L 258.570672 131.185123 
L 258.217227 126.70848 
L 257.711359 122.356284 
L 256.915926 117.277091 
L 255.867548 112.073977 
L 254.659805 107.178961 
L 253.22756 102.274698 
L 251.732666 97.836463 
L 249.874456 92.987845 
L 247.736022 88.066553 
L 245.218764 82.934569 
L 242.621874 78.2063 
L 239.844416 73.644603 
L 236.841328 69.17428 
L 234.408485 65.845224 
L 231.110248 61.684955 
L 227.588002 57.626409 
L 224.45701 54.30641 
L 221.008639 50.924842 
L 217.305222 47.578653 
L 212.960945 43.989011 
L 209.631599 41.459399 
L 205.278065 38.414981 
L 201.366365 35.914035 
L 195.93189 32.777529 
L 190.988158 30.239829 
L 185.871165 27.90699 
L 180.229352 25.659394 
L 174.84039 23.812516 
L 169.392992 22.229002 
L 164.744588 21.094345 
L 159.722725 20.085642 
L 155.344785 19.385881 
L 149.822336 18.737076 
L 144.761636 18.368318 
L 139.384806 18.210822 
L 133.833612 18.300518 
L 128.661625 18.615227 
L 123.593559 19.141606 
L 118.05028 19.967857 
L 112.825648 20.991023 
L 107.567289 22.266711 
L 102.274758 23.808114 
L 97.365194 25.478048 
L 92.426078 27.401947 
L 87.683162 29.491663 
L 82.679177 31.969311 
L 77.874019 34.630531 
L 73.281814 37.452332 
L 68.956005 40.380739 
L 65.366237 43.027518 
L 60.930223 46.596568 
L 56.479274 50.547035 
L 52.778966 54.150059 
L 48.945392 58.232278 
L 46.003215 61.641285 
L 42.263311 66.378904 
L 38.923166 71.064797 
L 35.946477 75.682929 
L 33.085954 80.60944 
L 30.407272 85.777093 
L 28.448926 89.994329 
L 26.169475 95.530892 
L 24.53826 100.059983 
L 23.073966 104.703186 
L 21.60272 110.19715 
L 20.423472 115.594867 
L 19.413086 121.592679 
L 18.866525 126.007921 
L 18.434604 131.194886 
L 18.254433 135.218922 
L 18.227654 140.814974 
L 18.461845 146.421515 
L 18.981125 152.225285 
L 19.742058 157.760251 
L 20.601616 162.490028 
L 21.494204 166.539706 
L 22.681294 171.116455 
L 24.228599 176.200008 
L 25.843069 180.79698 
L 27.523274 185.041609 
L 29.647882 189.829933 
L 32.161191 194.868243 
L 34.548509 199.171371 
L 37.093232 203.347833 
L 40.222354 208.012794 
L 42.957672 211.738231 
L 46.019259 215.579738 
L 49.295293 219.360191 
L 53.035694 223.316243 
L 56.167941 226.369745 
L 60.48358 230.235601 
L 64.103307 233.204954 
L 68.875427 236.779186 
L 73.716173 240.047599 
L 78.781604 243.118979 
L 83.518269 245.695105 
L 87.88166 247.833076 
L 92.782264 249.981961 
L 97.906485 251.959226 
L 103.066164 253.685772 
L 108.841447 255.318053 
L 113.281086 256.365223 
L 117.93603 257.275161 
L 122.597204 257.997798 
L 128.069156 258.609964 
L 133.499672 258.968918 
L 138.972296 259.082394 
L 143.937096 258.97036 
L 148.484423 258.687842 
L 153.90344 258.124777 
L 159.165464 257.339253 
L 163.801805 256.448439 
L 168.963756 255.232237 
L 174.624688 253.617976 
L 179.621665 251.939551 
L 184.450537 250.081291 
L 189.551425 247.852855 
L 194.329345 245.503267 
L 199.290588 242.776309 
L 204.012168 239.888041 
L 208.693985 236.716724 
L 212.771087 233.681878 
L 216.339624 230.796293 
L 219.866319 227.713036 
L 223.55942 224.210475 
L 227.463449 220.163895 
L 230.328329 216.938598 
L 233.393493 213.212735 
L 236.672768 208.861588 
L 239.854165 204.210402 
L 242.510352 199.932823 
L 245.439993 194.694697 
L 248.210174 189.091861 
L 250.077795 184.841913 
L 251.894697 180.215424 
L 253.455437 175.715946 
L 255.080079 170.284842 
L 256.188339 165.917378 
L 257.30668 160.600931 
L 258.151303 155.474793 
L 258.783487 150.226504 
L 259.149191 145.589976 
L 259.356017 139.660095 
L 259.310747 134.887676 
L 258.995455 129.013522 
L 258.569068 124.601809 
L 257.884283 119.585673 
L 256.999627 114.651581 
L 256.126346 110.654808 
L 254.606589 104.86833 
L 252.897634 99.443334 
L 251.171669 94.709148 
L 249.140489 89.802149 
L 246.98404 85.168994 
L 244.20249 79.847553 
L 241.785615 75.688651 
L 239.460952 72.016316 
L 236.982786 68.397891 
L 234.164677 64.59899 
L 230.860975 60.510224 
L 227.084806 56.247448 
L 223.291203 52.34345 
L 219.425054 48.703895 
L 215.353534 45.197299 
L 211.096472 41.850022 
L 207.120642 38.989802 
L 203.217207 36.4101 
L 198.033865 33.305825 
L 193.605024 30.922009 
L 189.731673 29.026508 
L 184.06305 26.551586 
L 179.227788 24.705972 
L 175.66913 23.496368 
L 169.77774 21.759612 
L 164.032376 20.373142 
L 158.561562 19.325091 
L 153.476825 18.582805 
L 148.923015 18.104065 
L 142.855632 17.73568 
L 138.250145 17.660023 
L 132.686201 17.802853 
L 128.360888 18.091489 
L 122.981304 18.669078 
L 118.402959 19.353998 
L 113.326838 20.325162 
L 107.568719 21.703283 
L 102.262905 23.242038 
L 98.00669 24.669994 
L 93.383172 26.424725 
L 89.186402 28.209263 
L 83.942337 30.709883 
L 79.628286 33.006551 
L 76.251814 34.964838 
L 71.814602 37.767963 
L 68.068293 40.3528 
L 63.446108 43.842927 
L 59.989583 46.691236 
L 55.810015 50.438925 
L 52.214435 53.960542 
L 48.808718 57.584172 
L 45.552674 61.347456 
L 41.724215 66.208836 
L 39.045532 69.94122 
L 36.084934 74.448251 
L 33.636066 78.541223 
L 30.906499 83.588849 
L 28.435973 88.723781 
L 26.302949 93.73607 
L 24.731478 97.892801 
L 23.149546 102.62787 
L 21.940879 106.76945 
L 20.537787 112.456271 
L 19.567278 117.313783 
L 18.774157 122.371237 
L 18.15219 127.940124 
L 17.825709 132.714472 
L 17.683686 138.373639 
L 17.765925 143.0423 
L 18.142407 149.104514 
L 18.71839 154.367092 
L 19.573658 159.878546 
L 20.464693 164.368056 
L 21.76701 169.743241 
L 23.307507 175.033928 
L 25.163394 180.455752 
L 27.051492 185.25526 
L 28.876224 189.398805 
L 30.826763 193.416278 
L 33.21414 197.87755 
L 35.724113 202.135071 
L 38.032255 205.730003 
L 40.830741 209.745576 
L 43.733433 213.573996 
L 47.19186 217.755784 
L 50.951337 221.901735 
L 54.749166 225.725891 
L 58.725695 229.387912 
L 63.062299 233.029589 
L 67.070192 236.103376 
L 70.890118 238.796426 
L 75.266076 241.621366 
L 79.106894 243.888845 
L 84.176024 246.600019 
L 89.333083 249.051797 
L 94.492651 251.215561 
L 99.80406 253.158098 
L 104.896681 254.762503 
L 109.625095 256.035165 
L 114.369642 257.109114 
L 120.091838 258.141482 
L 125.372719 258.845185 
L 130.542953 259.306723 
L 135.575878 259.542363 
L 141.026515 259.561258 
L 146.742586 259.317194 
L 151.690489 258.886587 
L 157.052107 258.187542 
L 161.951806 257.333788 
L 167.251266 256.174003 
L 172.816953 254.683597 
L 178.587344 252.832248 
L 183.417632 251.031912 
L 188.120701 249.04832 
L 193.539158 246.46432 
L 197.923045 244.124374 
L 202.590013 241.369949 
L 207.109912 238.422655 
L 211.90949 234.963253 
L 215.613781 232.037897 
L 219.517082 228.688602 
L 223.78676 224.674276 
L 227.589529 220.748305 
L 231.440763 216.382575 
L 233.892961 213.367426 
L 237.490744 208.554853 
L 240.750499 203.718557 
L 243.253214 199.629324 
L 246.090884 194.498958 
L 248.441229 189.744865 
L 250.408899 185.305559 
L 252.411326 180.21233 
L 254.10383 175.278816 
L 255.572022 170.315307 
L 256.776759 165.513252 
L 257.769825 160.743595 
L 258.693644 155.071542 
L 259.330021 149.553555 
L 259.67803 144.72283 
L 259.822825 140.554701 
L 259.791734 134.962073 
L 259.516219 129.559616 
L 259.111656 125.152133 
L 258.448754 120.111768 
L 257.58533 115.156019 
L 256.476748 110.072534 
L 255.10878 104.894253 
L 253.440285 99.564848 
L 251.520524 94.298582 
L 249.395135 89.207109 
L 247.023245 84.183586 
L 244.464192 79.346488 
L 241.866955 74.917426 
L 239.493438 71.211911 
L 236.239613 66.568575 
L 233.468901 62.9496 
L 230.204264 59.020418 
L 226.416 54.851394 
L 223.378014 51.772164 
L 219.25918 47.926892 
L 215.07527 44.365729 
L 210.611839 40.907208 
L 205.917199 37.610096 
L 200.860939 34.412192 
L 197.05397 32.226515 
L 192.709477 29.948969 
L 187.545801 27.523693 
L 182.840079 25.564265 
L 178.639634 24.006809 
L 173.061719 22.205097 
L 167.381383 20.66965 
L 161.605078 19.406066 
L 156.797698 18.576541 
L 150.996302 17.837859 
L 144.82698 17.361715 
L 140.701124 17.219322 
L 135.248038 17.246584 
L 129.937553 17.509121 
L 125.432223 17.915525 
L 119.757469 18.670166 
L 114.801523 19.55437 
L 110.538568 20.486596 
L 105.903998 21.68486 
L 100.547509 23.317313 
L 95.270544 25.195774 
L 90.523477 27.125991 
L 85.30501 29.525524 
L 81.927949 31.242106 
L 76.844647 34.084735 
L 72.160217 36.999667 
L 68.48053 39.504714 
L 65.147232 41.950879 
L 60.664314 45.530057 
L 56.482089 49.200642 
L 53.684204 51.855421 
L 50.321663 55.282022 
L 46.618934 59.391427 
L 43.201196 63.545721 
L 40.00696 67.797143 
L 37.170476 71.927244 
L 34.089193 76.873255 
L 31.520244 81.44962 
L 29.520182 85.369881 
L 27.290405 90.210369 
L 25.271835 95.153019 
L 23.42817 100.313125 
L 21.950159 105.091504 
L 20.632083 110.084424 
L 19.462792 115.46046 
L 18.644136 120.179415 
L 17.946017 125.526216 
L 17.531694 130.208303 
L 17.266124 136.230332 
L 17.286529 141.792622 
L 17.534804 146.969204 
L 17.938335 151.535191 
L 18.577197 156.511216 
L 19.285938 160.741069 
L 20.44947 166.28165 
L 21.818433 171.579971 
L 23.44906 176.884436 
L 25.023404 181.327909 
L 27.027886 186.316656 
L 29.249039 191.207227 
L 31.471254 195.59616 
L 33.749673 199.686414 
L 36.086261 203.531617 
L 38.912405 207.792833 
L 41.155702 210.91848 
L 44.319843 214.998705 
L 47.854728 219.166852 
L 51.065699 222.645769 
L 54.879147 226.446815 
L 58.444657 229.71353 
L 62.295652 232.964012 
L 67.056792 236.62542 
L 71.514443 239.730817 
L 76.137897 242.65266 
L 80.848147 245.341733 
L 85.395694 247.682505 
L 89.589571 249.632729 
L 94.877192 251.822778 
L 100.541796 253.854285 
L 105.782233 255.458214 
L 110.504476 256.686024 
L 116.215599 257.904824 
L 121.696424 258.808194 
L 126.287834 259.368605 
L 131.157492 259.770328 
L 135.515119 259.96327 
L 140.070949 259.997653 
L 145.751429 259.80106 
L 150.460571 259.43573 
L 155.27367 258.870969 
L 160.869422 257.967511 
L 165.63634 256.984187 
L 170.030096 255.899274 
L 175.736074 254.226506 
L 180.536988 252.579265 
L 184.903585 250.882181 
L 189.412866 248.92127 
L 194.196151 246.597055 
L 198.771016 244.123953 
L 203.079074 241.5555 
L 207.498237 238.66026 
L 211.444688 235.832708 
L 215.554537 232.622373 
L 219.216362 229.510704 
L 223.537193 225.498479 
L 227.184729 221.787308 
L 230.349953 218.292472 
L 233.461919 214.57221 
L 236.091192 211.177311 
L 239.190475 206.830134 
L 241.967601 202.558223 
L 245.015536 197.364679 
L 247.259933 193.117894 
L 249.715692 187.93991 
L 251.981128 182.507123 
L 254.100222 176.612199 
L 255.60278 171.725443 
L 257.052002 166.131772 
L 257.911662 162.15742 
L 258.852246 156.80476 
L 259.5828 151.131781 
L 259.962397 146.753084 
L 260.217933 141.088986 
L 260.199137 135.040089 
L 259.99398 130.606019 
L 259.45168 124.559687 
L 258.845654 120.036232 
L 257.991382 115.130862 
L 256.737133 109.438235 
L 255.377143 104.374657 
L 253.776456 99.304583 
L 251.816037 93.95237 
L 249.726114 88.96447 
L 247.498039 84.237822 
L 244.800356 79.127833 
L 242.251408 74.779612 
L 239.50062 70.505259 
L 237.200701 67.20932 
L 234.081517 63.080959 
L 230.525288 58.783063 
L 227.05779 54.950456 
L 222.78866 50.648649 
L 218.859505 47.043809 
L 214.566341 43.446507 
L 210.981707 40.688379 
L 206.619116 37.604921 
L 202.482789 34.93566 
L 198.55703 32.613822 
L 194.609176 30.472988 
L 189.92638 28.170432 
L 184.660025 25.869465 
L 179.923374 24.046217 
L 175.014351 22.390539 
L 169.494702 20.800987 
L 164.595882 19.622494 
L 160.270186 18.758024 
L 154.370153 17.838662 
L 148.506274 17.215889 
L 142.64799 16.878889 
L 137.968998 16.812816 
L 132.20473 16.978898 
L 126.395926 17.423784 
L 120.9603 18.095108 
L 115.636982 18.99558 
L 109.511731 20.336502 
L 104.286396 21.746254 
L 98.744251 23.519491 
L 92.945264 25.695746 
L 87.660582 27.980835 
L 82.342849 30.589784 
L 78.405055 32.73522 
L 74.283782 35.188814 
L 70.225705 37.827755 
L 65.65877 41.084755 
L 61.544476 44.304425 
L 58.15346 47.182416 
L 53.78391 51.22432 
L 50.039772 55.024527 
L 46.602865 58.826566 
L 42.99356 63.193668 
L 39.678547 67.602198 
L 36.453019 72.331309 
L 33.832186 76.561904 
L 31.453621 80.771291 
L 28.881941 85.818859 
L 26.804743 90.379814 
L 24.77991 95.3822 
L 23.04282 100.275335 
L 21.854308 104.070757 
L 20.225872 110.161651 
L 19.238904 114.649282 
L 18.284925 120.040687 
L 17.629228 124.970697 
L 17.160419 130.136637 
L 16.906503 135.533004 
L 16.883014 140.407794 
L 17.134718 146.598149 
L 17.582623 151.721859 
L 18.294485 157.135866 
L 19.026756 161.380363 
L 20.153316 166.649142 
L 21.319846 171.180249 
L 22.871825 176.320353 
L 24.802833 181.794749 
L 26.897667 186.952537 
L 29.203977 191.964119 
L 31.660389 196.729372 
L 34.201453 201.177765 
L 36.944537 205.541527 
L 40.288794 210.362949 
L 42.809743 213.695156 
L 46.091423 217.703157 
L 49.642128 221.676963 
L 53.755885 225.875245 
L 57.686423 229.532532 
L 61.213676 232.553908 
L 65.148248 235.6625 
L 70.028926 239.171987 
L 73.944819 241.73487 
L 78.393787 244.395881 
L 83.522283 247.156798 
L 88.461261 249.527171 
L 93.211773 251.556855 
L 98.056324 253.387689 
L 103.09536 255.048056 
L 108.507941 256.566182 
L 113.628465 257.758692 
L 118.508427 258.681296 
L 123.660965 259.434252 
L 129.848505 260.043976 
L 135.680293 260.328503 
L 141.054644 260.343223 
L 146.623883 260.108138 
L 151.561688 259.685457 
L 156.915292 258.997111 
L 161.666731 258.182469 
L 167.498212 256.914725 
L 172.445964 255.600878 
L 177.529896 254.014816 
L 181.983561 252.421011 
L 186.55448 250.577872 
L 191.468574 248.35002 
L 195.798069 246.163419 
L 200.830261 243.340377 
L 205.339138 240.534198 
L 209.777624 237.494015 
L 214.236128 234.136007 
L 218.072237 230.97762 
L 221.737014 227.702227 
L 225.981418 223.554691 
L 229.604207 219.672253 
L 232.969788 215.739187 
L 236.635717 211.036219 
L 239.728885 206.663712 
L 242.54956 202.285801 
L 245.070479 197.988825 
L 247.427127 193.566047 
L 249.867983 188.4585 
L 251.836299 183.828242 
L 253.711173 178.839064 
L 255.453533 173.482914 
L 256.848513 168.441565 
L 258.068406 163.140761 
L 259.134462 157.261863 
L 259.838199 152.007682 
L 260.309286 146.780959 
L 260.577159 140.486811 
L 260.570458 136.046163 
L 260.34854 130.714511 
L 259.861519 125.103171 
L 259.08934 119.351919 
L 258.06616 113.748619 
L 256.815508 108.328548 
L 255.364178 103.120015 
L 253.544602 97.588459 
L 251.544558 92.349128 
L 249.680206 88.023779 
L 247.141835 82.771537 
L 244.610513 78.092688 
L 242.245966 74.118217 
L 239.292808 69.589136 
L 236.516731 65.697071 
L 233.368557 61.642495 
L 230.490377 58.222497 
L 227.180677 54.583679 
L 223.553513 50.91264 
L 219.369989 47.039552 
L 215.283341 43.586332 
L 211.24848 40.463003 
L 207.556956 37.831808 
L 203.072015 34.901722 
L 198.663752 32.284784 
L 194.041559 29.800258 
L 190.06974 27.864016 
L 185.441469 25.826193 
L 180.295369 23.821939 
L 175.042872 22.04605 
L 170.469756 20.712242 
L 165.327764 19.439954 
L 160.601672 18.476594 
L 156.111083 17.739604 
L 150.487675 17.056943 
L 145.037556 16.646359 
L 139.739649 16.48168 
L 134.406249 16.548373 
L 128.863089 16.865305 
L 123.379857 17.429048 
L 117.549096 18.305513 
L 112.999307 19.191641 
L 107.511771 20.502385 
L 102.311838 21.996247 
L 97.588635 23.573648 
L 92.541049 25.501655 
L 86.989111 27.926762 
L 81.84085 30.47869 
L 76.833267 33.261381 
L 71.685418 36.456644 
L 66.549093 40.015451 
L 61.819618 43.655624 
L 58.159452 46.738742 
L 54.622464 49.963436 
L 50.52928 54.032948 
L 46.754633 58.152255 
L 42.989809 62.669595 
L 39.8743 66.771264 
L 37.029961 70.85735 
L 34.040193 75.575285 
L 31.284006 80.398006 
L 28.509394 85.841024 
L 26.571455 90.09756 
L 24.496877 95.210036 
L 22.744 100.142656 
L 21.070495 105.619526 
L 19.636098 111.254029 
L 18.465995 116.981529 
L 17.630738 122.309915 
L 17.116533 126.759245 
L 16.707333 132.273691 
L 16.554187 137.129854 
L 16.63725 143.271126 
L 17.034723 149.464189 
L 17.525772 153.987392 
L 18.367677 159.563135 
L 19.248283 164.096406 
L 20.665196 169.998026 
L 22.278428 175.52375 
L 23.817534 180.058043 
L 26.023558 185.716935 
L 28.227171 190.667768 
L 30.656379 195.531377 
L 33.540595 200.691474 
L 36.103943 204.836552 
L 39.011051 209.131476 
L 42.480174 213.790379 
L 45.587495 217.601905 
L 49.328516 221.806325 
L 52.968433 225.548436 
L 57.11096 229.443268 
L 61.348476 233.074242 
L 65.311967 236.182206 
L 69.933283 239.489202 
L 74.645145 242.541828 
L 79.275212 245.254161 
L 84.561793 248.030035 
L 88.834847 250.040324 
L 93.884037 252.163097 
L 97.927756 253.675437 
L 103.575493 255.521357 
L 107.723331 256.686921 
L 113.34148 258.018217 
L 116.868416 258.712353 
L 122.981207 259.663065 
L 128.331026 260.23741 
L 132.234089 260.506809 
L 137.494464 260.67183 
L 142.372101 260.622349 
L 147.16858 260.383464 
L 152.670021 259.875737 
L 157.77876 259.177972 
L 161.775769 258.477648 
L 167.370284 257.264817 
L 172.84389 255.808173 
L 177.978907 254.189819 
L 182.869794 252.412063 
L 187.756645 250.394338 
L 192.513979 248.185597 
L 196.258948 246.267482 
L 201.611082 243.233246 
L 205.571567 240.74997 
L 209.600631 237.998639 
L 214.404129 234.394724 
L 217.948643 231.487117 
L 221.805012 228.057601 
L 225.644824 224.335178 
L 229.277525 220.493173 
L 232.533404 216.746782 
L 235.580232 212.941913 
L 239.118391 208.096567 
L 242.314413 203.243837 
L 245.438958 197.953486 
L 247.778514 193.545358 
L 250.090944 188.703557 
L 251.512106 185.424737 
L 253.563318 180.155698 
L 255.024888 175.883666 
L 256.677245 170.291825 
L 257.951851 165.120924 
L 258.980394 160.009235 
L 259.872231 154.239146 
L 260.427706 149.138586 
L 260.712775 145.134153 
L 260.883196 140.174609 
L 260.83693 134.681073 
L 260.550801 129.28647 
L 260.053054 124.132035 
L 259.312138 118.846799 
L 258.157113 112.728173 
L 257.161949 108.476134 
L 255.902863 103.877851 
L 253.983251 97.93265 
L 252.449225 93.805623 
L 250.192533 88.433835 
L 247.995548 83.797572 
L 245.499556 79.065634 
L 242.600153 74.125022 
L 239.822994 69.839643 
L 236.815177 65.600937 
L 233.245376 61.021611 
L 230.249122 57.498804 
L 226.258508 53.195486 
L 222.691766 49.676945 
L 218.920018 46.251809 
L 214.8939 42.89489 
L 211.226964 40.080163 
L 207.087636 37.155928 
L 202.146989 33.986907 
L 197.485812 31.291408 
L 192.136069 28.522211 
L 187.383906 26.333388 
L 183.020419 24.534954 
L 177.371156 22.491475 
L 172.858788 21.079857 
L 168.927794 20.003783 
L 163.822001 18.813152 
L 159.153677 17.923885 
L 153.723706 17.123396 
L 148.141081 16.557703 
L 143.380203 16.278637 
L 138.441974 16.185483 
L 133.073979 16.310477 
L 127.197454 16.71845 
L 122.934534 17.193278 
L 116.719718 18.159104 
L 111.804676 19.157411 
L 106.948951 20.352534 
L 102.344643 21.683316 
L 97.672087 23.237362 
L 92.34934 25.268233 
L 87.834104 27.219378 
L 82.843185 29.634319 
L 79.241125 31.555648 
L 74.644211 34.239497 
L 70.54179 36.869745 
L 65.760904 40.239384 
L 62.238612 42.950679 
L 57.993082 46.5036 
L 54.355904 49.821772 
L 51.047336 53.086198 
L 47.059091 57.374294 
L 43.581138 61.476154 
L 40.256642 65.76762 
L 36.911791 70.521229 
L 33.808893 75.407686 
L 31.038122 80.25497 
L 28.612773 84.973513 
L 26.300828 90.008394 
L 24.339922 94.825712 
L 22.659402 99.501771 
L 21.270466 103.900341 
L 19.828046 109.226721 
L 18.561294 114.945732 
L 17.644249 120.219354 
L 16.959541 125.520121 
L 16.528358 130.513126 
L 16.292118 135.948277 
L 16.28159 140.583293 
L 16.466946 145.578499 
L 16.848448 150.483895 
L 17.388244 155.089771 
L 18.34026 160.98815 
L 19.439217 166.23809 
L 20.604566 170.846503 
L 22.187088 176.154811 
L 23.999238 181.362194 
L 26.055424 186.509347 
L 28.306551 191.483219 
L 30.761468 196.32232 
L 33.352941 200.920581 
L 35.772099 204.834926 
L 38.699752 209.172268 
L 41.491841 212.966809 
L 44.850278 217.157935 
L 49.108131 221.976001 
L 53.160222 226.12399 
L 56.864936 229.593822 
L 60.476148 232.713158 
L 64.891502 236.210859 
L 69.242931 239.350488 
L 73.053745 241.871476 
L 76.513967 243.989195 
L 80.950712 246.481744 
L 85.661031 248.871444 
L 90.123776 250.906772 
L 95.848108 253.210784 
L 101.581498 255.191778 
L 106.652035 256.684563 
L 110.364194 257.628813 
L 116.548325 258.931603 
L 121.34922 259.715993 
L 127.223171 260.411938 
L 132.457055 260.791237 
L 137.870826 260.947171 
L 143.683388 260.847983 
L 148.379231 260.565829 
L 153.369908 260.066576 
L 159.025228 259.249302 
L 163.628303 258.383212 
L 169.068065 257.121521 
L 174.099173 255.718068 
L 178.551253 254.279803 
L 184.042073 252.24126 
L 188.27828 250.459341 
L 192.725348 248.382144 
L 197.158568 246.088803 
L 202.280119 243.143458 
L 205.769173 240.942035 
L 210.540268 237.654304 
L 214.826457 234.402738 
L 219.124514 230.827984 
L 222.790992 227.501494 
L 227.129859 223.192041 
L 229.98774 220.103659 
L 233.824482 215.597324 
L 237.087329 211.388044 
L 239.664187 207.775089 
L 242.609871 203.273825 
L 244.273198 200.526458 
L 244.273198 200.526458 
" style="fill:none;stroke:#ff0000;stroke-linecap:square;"/>
   </g>
   <g id="patch_3">
    <path d="M 11.373292 138.501824 
L 265.787754 138.501824 
" style="fill:none;stroke:#000000;stroke-linecap:square;stroke-linejoin:miter;stroke-width:0.8;"/>
   </g>
   <g id="patch_4">
    <path d="M 138.647918 265.843775 
L 138.647918 11.290222 
" style="fill:none;stroke:#000000;stroke-linecap:square;stroke-linejoin:miter;stroke-width:0.8;"/>
   </g>
   <g id="matplotlib.axis_1">
    <g id="xtick_1">
     <g id="line2d_2">
      <defs>
       <path d="M 0 0 
L 0 -4 
" id="m33099912ef" style="stroke:#000000;stroke-width:0.5;"/>
      </defs>
      <g>
       <use style="stroke:#000000;stroke-width:0.5;" x="12.18515625" xlink:href="#m33099912ef" y="138.501823942"/>
      </g>
     </g>
     <g id="text_1">
      <!-- -1 -->
      <defs>
       <path d="M 12.40625 8.296875 
L 28.515625 8.296875 
L 28.515625 63.921875 
L 10.984375 60.40625 
L 10.984375 69.390625 
L 28.421875 72.90625 
L 38.28125 72.90625 
L 38.28125 8.296875 
L 54.390625 8.296875 
L 54.390625 0 
L 12.40625 0 
z
" id="BitstreamVeraSans-Roman-31"/>
       <path d="M 4.890625 31.390625 
L 31.203125 31.390625 
L 31.203125 23.390625 
L 4.890625 23.390625 
z
" id="BitstreamVeraSans-Roman-2d"/>
      </defs>
      <g transform="translate(7.2 150.100261442)scale(0.1 -0.1)">
       <use xlink:href="#BitstreamVeraSans-Roman-2d"/>
       <use x="36.083984375" xlink:href="#BitstreamVeraSans-Roman-31"/>
      </g>
     </g>
    </g>
    <g id="xtick_2">
     <g id="line2d_3">
      <g>
       <use style="stroke:#000000;stroke-width:0.5;" x="75.4165369708" xlink:href="#m33099912ef" y="138.501823942"/>
      </g>
     </g>
     <g id="text_2">
      <!-- -0.5 -->
      <defs>
       <path d="M 31.78125 66.40625 
Q 24.171875 66.40625 20.328125 58.90625 
Q 16.5 51.421875 16.5 36.375 
Q 16.5 21.390625 20.328125 13.890625 
Q 24.171875 6.390625 31.78125 6.390625 
Q 39.453125 6.390625 43.28125 13.890625 
Q 47.125 21.390625 47.125 36.375 
Q 47.125 51.421875 43.28125 58.90625 
Q 39.453125 66.40625 31.78125 66.40625 
M 31.78125 74.21875 
Q 44.046875 74.21875 50.515625 64.515625 
Q 56.984375 54.828125 56.984375 36.375 
Q 56.984375 17.96875 50.515625 8.265625 
Q 44.046875 -1.421875 31.78125 -1.421875 
Q 19.53125 -1.421875 13.0625 8.265625 
Q 6.59375 17.96875 6.59375 36.375 
Q 6.59375 54.828125 13.0625 64.515625 
Q 19.53125 74.21875 31.78125 74.21875 
" id="BitstreamVeraSans-Roman-30"/>
       <path d="M 10.6875 12.40625 
L 21 12.40625 
L 21 0 
L 10.6875 0 
z
" id="BitstreamVeraSans-Roman-2e"/>
       <path d="M 10.796875 72.90625 
L 49.515625 72.90625 
L 49.515625 64.59375 
L 19.828125 64.59375 
L 19.828125 46.734375 
Q 21.96875 47.46875 24.109375 47.828125 
Q 26.265625 48.1875 28.421875 48.1875 
Q 40.625 48.1875 47.75 41.5 
Q 54.890625 34.8125 54.890625 23.390625 
Q 54.890625 11.625 47.5625 5.09375 
Q 40.234375 -1.421875 26.90625 -1.421875 
Q 22.3125 -1.421875 17.546875 -0.640625 
Q 12.796875 0.140625 7.71875 1.703125 
L 7.71875 11.625 
Q 12.109375 9.234375 16.796875 8.0625 
Q 21.484375 6.890625 26.703125 6.890625 
Q 35.15625 6.890625 40.078125 11.328125 
Q 45.015625 15.765625 45.015625 23.390625 
Q 45.015625 31 40.078125 35.4375 
Q 35.15625 39.890625 26.703125 39.890625 
Q 22.75 39.890625 18.8125 39.015625 
Q 14.890625 38.140625 10.796875 36.28125 
z
" id="BitstreamVeraSans-Roman-35"/>
      </defs>
      <g transform="translate(65.6610682208 150.100261442)scale(0.1 -0.1)">
       <use xlink:href="#BitstreamVeraSans-Roman-2d"/>
       <use x="36.083984375" xlink:href="#BitstreamVeraSans-Roman-30"/>
       <use x="99.70703125" xlink:href="#BitstreamVeraSans-Roman-2e"/>
       <use x="131.494140625" xlink:href="#BitstreamVeraSans-Roman-35"/>
      </g>
     </g>
    </g>
    <g id="xtick_3">
     <g id="line2d_4">
      <g>
       <use style="stroke:#000000;stroke-width:0.5;" x="138.647917692" xlink:href="#m33099912ef" y="138.501823942"/>
      </g>
     </g>
    </g>
    <g id="xtick_4">
     <g id="line2d_5">
      <g>
       <use style="stroke:#000000;stroke-width:0.5;" x="201.879298412" xlink:href="#m33099912ef" y="138.501823942"/>
      </g>
     </g>
     <g id="text_3">
      <!-- 0.5 -->
      <g transform="translate(193.927735912 150.100261442)scale(0.1 -0.1)">
       <use xlink:href="#BitstreamVeraSans-Roman-30"/>
       <use x="63.623046875" xlink:href="#BitstreamVeraSans-Roman-2e"/>
       <use x="95.41015625" xlink:href="#BitstreamVeraSans-Roman-35"/>
      </g>
     </g>
    </g>
    <g id="xtick_5">
     <g id="line2d_6">
      <g>
       <use style="stroke:#000000;stroke-width:0.5;" x="265.110679133" xlink:href="#m33099912ef" y="138.501823942"/>
      </g>
     </g>
     <g id="text_4">
      <!-- 1 -->
      <g transform="translate(261.929429133 150.100261442)scale(0.1 -0.1)">
       <use xlink:href="#BitstreamVeraSans-Roman-31"/>
      </g>
     </g>
    </g>
    <g id="xtick_6">
     <g id="line2d_7">
      <defs>
       <path d="M 0 0 
L 0 -2 
" id="m63589aa78b" style="stroke:#000000;stroke-width:0.5;"/>
      </defs>
      <g>
       <use style="stroke:#000000;stroke-width:0.5;" x="24.8314323942" xlink:href="#m63589aa78b" y="138.501823942"/>
      </g>
     </g>
    </g>
    <g id="xtick_7">
     <g id="line2d_8">
      <g>
       <use style="stroke:#000000;stroke-width:0.5;" x="37.4777085383" xlink:href="#m63589aa78b" y="138.501823942"/>
      </g>
     </g>
    </g>
    <g id="xtick_8">
     <g id="line2d_9">
      <g>
       <use style="stroke:#000000;stroke-width:0.5;" x="50.1239846825" xlink:href="#m63589aa78b" y="138.501823942"/>
      </g>
     </g>
    </g>
    <g id="xtick_9">
     <g id="line2d_10">
      <g>
       <use style="stroke:#000000;stroke-width:0.5;" x="62.7702608267" xlink:href="#m63589aa78b" y="138.501823942"/>
      </g>
     </g>
    </g>
    <g id="xtick_10">
     <g id="line2d_11">
      <g>
       <use style="stroke:#000000;stroke-width:0.5;" x="75.4165369708" xlink:href="#m63589aa78b" y="138.501823942"/>
      </g>
     </g>
    </g>
    <g id="xtick_11">
     <g id="line2d_12">
      <g>
       <use style="stroke:#000000;stroke-width:0.5;" x="88.062813115" xlink:href="#m63589aa78b" y="138.501823942"/>
      </g>
     </g>
    </g>
    <g id="xtick_12">
     <g id="line2d_13">
      <g>
       <use style="stroke:#000000;stroke-width:0.5;" x="100.709089259" xlink:href="#m63589aa78b" y="138.501823942"/>
      </g>
     </g>
    </g>
    <g id="xtick_13">
     <g id="line2d_14">
      <g>
       <use style="stroke:#000000;stroke-width:0.5;" x="113.355365403" xlink:href="#m63589aa78b" y="138.501823942"/>
      </g>
     </g>
    </g>
    <g id="xtick_14">
     <g id="line2d_15">
      <g>
       <use style="stroke:#000000;stroke-width:0.5;" x="126.001641547" xlink:href="#m63589aa78b" y="138.501823942"/>
      </g>
     </g>
    </g>
    <g id="xtick_15">
     <g id="line2d_16">
      <g>
       <use style="stroke:#000000;stroke-width:0.5;" x="138.647917692" xlink:href="#m63589aa78b" y="138.501823942"/>
      </g>
     </g>
    </g>
    <g id="xtick_16">
     <g id="line2d_17">
      <g>
       <use style="stroke:#000000;stroke-width:0.5;" x="151.294193836" xlink:href="#m63589aa78b" y="138.501823942"/>
      </g>
     </g>
    </g>
    <g id="xtick_17">
     <g id="line2d_18">
      <g>
       <use style="stroke:#000000;stroke-width:0.5;" x="163.94046998" xlink:href="#m63589aa78b" y="138.501823942"/>
      </g>
     </g>
    </g>
    <g id="xtick_18">
     <g id="line2d_19">
      <g>
       <use style="stroke:#000000;stroke-width:0.5;" x="176.586746124" xlink:href="#m63589aa78b" y="138.501823942"/>
      </g>
     </g>
    </g>
    <g id="xtick_19">
     <g id="line2d_20">
      <g>
       <use style="stroke:#000000;stroke-width:0.5;" x="189.233022268" xlink:href="#m63589aa78b" y="138.501823942"/>
      </g>
     </g>
    </g>
    <g id="xtick_20">
     <g id="line2d_21">
      <g>
       <use style="stroke:#000000;stroke-width:0.5;" x="201.879298412" xlink:href="#m63589aa78b" y="138.501823942"/>
      </g>
     </g>
    </g>
    <g id="xtick_21">
     <g id="line2d_22">
      <g>
       <use style="stroke:#000000;stroke-width:0.5;" x="214.525574557" xlink:href="#m63589aa78b" y="138.501823942"/>
      </g>
     </g>
    </g>
    <g id="xtick_22">
     <g id="line2d_23">
      <g>
       <use style="stroke:#000000;stroke-width:0.5;" x="227.171850701" xlink:href="#m63589aa78b" y="138.501823942"/>
      </g>
     </g>
    </g>
    <g id="xtick_23">
     <g id="line2d_24">
      <g>
       <use style="stroke:#000000;stroke-width:0.5;" x="239.818126845" xlink:href="#m63589aa78b" y="138.501823942"/>
      </g>
     </g>
    </g>
    <g id="xtick_24">
     <g id="line2d_25">
      <g>
       <use style="stroke:#000000;stroke-width:0.5;" x="252.464402989" xlink:href="#m63589aa78b" y="138.501823942"/>
      </g>
     </g>
    </g>
    <g id="xtick_25">
     <g id="line2d_26">
      <g>
       <use style="stroke:#000000;stroke-width:0.5;" x="265.110679133" xlink:href="#m63589aa78b" y="138.501823942"/>
      </g>
     </g>
    </g>
   </g>
   <g id="matplotlib.axis_2">
    <g id="ytick_1">
     <g id="line2d_27">
      <defs>
       <path d="M 0 0 
L 4 0 
" id="me0e3b9fc82" style="stroke:#000000;stroke-width:0.5;"/>
      </defs>
      <g>
       <use style="stroke:#000000;stroke-width:0.5;" x="138.647917692" xlink:href="#me0e3b9fc82" y="264.964585383"/>
      </g>
     </g>
     <g id="text_5">
      <!-- -1 -->
      <g transform="translate(124.677605192 267.723960383)scale(0.1 -0.1)">
       <use xlink:href="#BitstreamVeraSans-Roman-2d"/>
       <use x="36.083984375" xlink:href="#BitstreamVeraSans-Roman-31"/>
      </g>
     </g>
    </g>
    <g id="ytick_2">
     <g id="line2d_28">
      <g>
       <use style="stroke:#000000;stroke-width:0.5;" x="138.647917692" xlink:href="#me0e3b9fc82" y="201.733204662"/>
      </g>
     </g>
     <g id="text_6">
      <!-- -0.5 -->
      <g transform="translate(115.136980192 204.492579662)scale(0.1 -0.1)">
       <use xlink:href="#BitstreamVeraSans-Roman-2d"/>
       <use x="36.083984375" xlink:href="#BitstreamVeraSans-Roman-30"/>
       <use x="99.70703125" xlink:href="#BitstreamVeraSans-Roman-2e"/>
       <use x="131.494140625" xlink:href="#BitstreamVeraSans-Roman-35"/>
      </g>
     </g>
    </g>
    <g id="ytick_3">
     <g id="line2d_29">
      <g>
       <use style="stroke:#000000;stroke-width:0.5;" x="138.647917692" xlink:href="#me0e3b9fc82" y="138.501823942"/>
      </g>
     </g>
    </g>
    <g id="ytick_4">
     <g id="line2d_30">
      <g>
       <use style="stroke:#000000;stroke-width:0.5;" x="138.647917692" xlink:href="#me0e3b9fc82" y="75.2704432208"/>
      </g>
     </g>
     <g id="text_7">
      <!-- 0.5 -->
      <g transform="translate(118.744792692 78.0298182208)scale(0.1 -0.1)">
       <use xlink:href="#BitstreamVeraSans-Roman-30"/>
       <use x="63.623046875" xlink:href="#BitstreamVeraSans-Roman-2e"/>
       <use x="95.41015625" xlink:href="#BitstreamVeraSans-Roman-35"/>
      </g>
     </g>
    </g>
    <g id="ytick_5">
     <g id="line2d_31">
      <g>
       <use style="stroke:#000000;stroke-width:0.5;" x="138.647917692" xlink:href="#me0e3b9fc82" y="12.0390625"/>
      </g>
     </g>
     <g id="text_8">
      <!-- 1 -->
      <g transform="translate(128.285417692 14.7984375)scale(0.1 -0.1)">
       <use xlink:href="#BitstreamVeraSans-Roman-31"/>
      </g>
     </g>
    </g>
    <g id="ytick_6">
     <g id="line2d_32">
      <defs>
       <path d="M 0 0 
L 2 0 
" id="m61255918c2" style="stroke:#000000;stroke-width:0.5;"/>
      </defs>
      <g>
       <use style="stroke:#000000;stroke-width:0.5;" x="138.647917692" xlink:href="#m61255918c2" y="252.318309239"/>
      </g>
     </g>
    </g>
    <g id="ytick_7">
     <g id="line2d_33">
      <g>
       <use style="stroke:#000000;stroke-width:0.5;" x="138.647917692" xlink:href="#m61255918c2" y="239.672033095"/>
      </g>
     </g>
    </g>
    <g id="ytick_8">
     <g id="line2d_34">
      <g>
       <use style="stroke:#000000;stroke-width:0.5;" x="138.647917692" xlink:href="#m61255918c2" y="227.025756951"/>
      </g>
     </g>
    </g>
    <g id="ytick_9">
     <g id="line2d_35">
      <g>
       <use style="stroke:#000000;stroke-width:0.5;" x="138.647917692" xlink:href="#m61255918c2" y="214.379480807"/>
      </g>
     </g>
    </g>
    <g id="ytick_10">
     <g id="line2d_36">
      <g>
       <use style="stroke:#000000;stroke-width:0.5;" x="138.647917692" xlink:href="#m61255918c2" y="201.733204662"/>
      </g>
     </g>
    </g>
    <g id="ytick_11">
     <g id="line2d_37">
      <g>
       <use style="stroke:#000000;stroke-width:0.5;" x="138.647917692" xlink:href="#m61255918c2" y="189.086928518"/>
      </g>
     </g>
    </g>
    <g id="ytick_12">
     <g id="line2d_38">
      <g>
       <use style="stroke:#000000;stroke-width:0.5;" x="138.647917692" xlink:href="#m61255918c2" y="176.440652374"/>
      </g>
     </g>
    </g>
    <g id="ytick_13">
     <g id="line2d_39">
      <g>
       <use style="stroke:#000000;stroke-width:0.5;" x="138.647917692" xlink:href="#m61255918c2" y="163.79437623"/>
      </g>
     </g>
    </g>
    <g id="ytick_14">
     <g id="line2d_40">
      <g>
       <use style="stroke:#000000;stroke-width:0.5;" x="138.647917692" xlink:href="#m61255918c2" y="151.148100086"/>
      </g>
     </g>
    </g>
    <g id="ytick_15">
     <g id="line2d_41">
      <g>
       <use style="stroke:#000000;stroke-width:0.5;" x="138.647917692" xlink:href="#m61255918c2" y="138.501823942"/>
      </g>
     </g>
    </g>
    <g id="ytick_16">
     <g id="line2d_42">
      <g>
       <use style="stroke:#000000;stroke-width:0.5;" x="138.647917692" xlink:href="#m61255918c2" y="125.855547797"/>
      </g>
     </g>
    </g>
    <g id="ytick_17">
     <g id="line2d_43">
      <g>
       <use style="stroke:#000000;stroke-width:0.5;" x="138.647917692" xlink:href="#m61255918c2" y="113.209271653"/>
      </g>
     </g>
    </g>
    <g id="ytick_18">
     <g id="line2d_44">
      <g>
       <use style="stroke:#000000;stroke-width:0.5;" x="138.647917692" xlink:href="#m61255918c2" y="100.562995509"/>
      </g>
     </g>
    </g>
    <g id="ytick_19">
     <g id="line2d_45">
      <g>
       <use style="stroke:#000000;stroke-width:0.5;" x="138.647917692" xlink:href="#m61255918c2" y="87.916719365"/>
      </g>
     </g>
    </g>
    <g id="ytick_20">
     <g id="line2d_46">
      <g>
       <use style="stroke:#000000;stroke-width:0.5;" x="138.647917692" xlink:href="#m61255918c2" y="75.2704432208"/>
      </g>
     </g>
    </g>
    <g id="ytick_21">
     <g id="line2d_47">
      <g>
       <use style="stroke:#000000;stroke-width:0.5;" x="138.647917692" xlink:href="#m61255918c2" y="62.6241670767"/>
      </g>
     </g>
    </g>
    <g id="ytick_22">
     <g id="line2d_48">
      <g>
       <use style="stroke:#000000;stroke-width:0.5;" x="138.647917692" xlink:href="#m61255918c2" y="49.9778909325"/>
      </g>
     </g>
    </g>
    <g id="ytick_23">
     <g id="line2d_49">
      <g>
       <use style="stroke:#000000;stroke-width:0.5;" x="138.647917692" xlink:href="#m61255918c2" y="37.3316147883"/>
      </g>
     </g>
    </g>
    <g id="ytick_24">
     <g id="line2d_50">
      <g>
       <use style="stroke:#000000;stroke-width:0.5;" x="138.647917692" xlink:href="#m61255918c2" y="24.6853386442"/>
      </g>
     </g>
    </g>
    <g id="ytick_25">
     <g id="line2d_51">
      <g>
       <use style="stroke:#000000;stroke-width:0.5;" x="138.647917692" xlink:href="#m61255918c2" y="12.0390625"/>
      </g>
     </g>
    </g>
   </g>
  </g>
 </g>
 <defs>
  <clipPath id="p98c0895286">
   <rect height="254.5535525" width="254.414461771" x="11.3732923914" y="11.290222439"/>
  </clipPath>
 </defs>
</svg>
