<?xml version="1.0" encoding="utf-8" standalone="no"?>
<!DOCTYPE svg PUBLIC "-//W3C//DTD SVG 1.1//EN"
  "http://www.w3.org/Graphics/SVG/1.1/DTD/svg11.dtd">
<!-- Created with matplotlib (http://matplotlib.org/) -->
<svg height="276pt" version="1.1" viewBox="0 0 551 276" width="551pt" xmlns="http://www.w3.org/2000/svg" xmlns:xlink="http://www.w3.org/1999/xlink">
 <defs>
  <style type="text/css">
*{stroke-linecap:butt;stroke-linejoin:round;stroke-miterlimit:100000;}
  </style>
 </defs>
 <g id="figure_1">
  <g id="patch_1">
   <path d="M 0 276.341529 
L 551.568223 276.341529 
L 551.568223 0 
L 0 0 
z
" style="fill:#ffffff;"/>
  </g>
  <g id="axes_1">
   <g id="patch_2">
    <path d="M 28.343389 269.141529 
L 544.368223 269.141529 
L 544.368223 7.2 
L 28.343389 7.2 
z
" style="fill:#ffffff;"/>
   </g>
   <g id="line2d_1">
    <path clip-path="url(#p1359f6f589)" d="M 38.266943 29.109207 
L 38.310238 39.430872 
L 38.429528 230.619026 
L 38.536105 22.045443 
L 38.669159 239.416141 
L 38.676887 223.178992 
L 38.786322 21.238954 
L 38.902468 264.085131 
L 38.914416 258.524816 
L 39.031371 13.319787 
L 39.08939 90.883058 
L 39.169643 262.420538 
L 39.228747 191.389755 
L 39.316846 12.933023 
L 39.351519 36.616967 
L 39.44895 250.637413 
L 39.519675 207.539903 
L 39.653953 30.371855 
L 39.77337 259.659004 
L 39.829229 225.612709 
L 39.928178 26.189214 
L 39.982139 29.141849 
L 40.123276 263.892759 
L 40.154035 249.30294 
L 40.291063 16.304618 
L 40.325823 19.545438 
L 40.510747 258.230444 
L 40.549563 212.066471 
L 40.698278 14.678292 
L 40.901458 261.207908 
L 40.929734 238.835285 
L 41.076563 17.987228 
L 41.137937 33.898813 
L 41.3145 264.081184 
L 41.34919 250.588453 
L 41.535439 13.061599 
L 41.593207 38.809505 
L 41.795849 262.103717 
L 41.824337 245.896797 
L 42.031505 12.242151 
L 42.15508 131.555414 
L 42.310999 260.633049 
L 42.562255 12.249632 
L 42.642818 58.673006 
L 42.863375 262.630223 
L 42.871521 260.483214 
L 43.158041 12.7979 
L 43.312801 148.857444 
L 43.462113 264.089355 
L 43.505192 254.038667 
L 43.796268 12.246953 
L 43.900709 66.980321 
L 44.132444 263.47504 
L 44.188803 254.501165 
L 44.35107 110.8026 
L 44.509489 12.261802 
L 44.60473 47.452348 
L 44.891345 263.769257 
L 44.942908 257.252461 
L 45.110526 131.253813 
L 45.329421 13.296554 
L 45.413818 46.129527 
L 45.772514 262.225854 
L 45.801711 255.296417 
L 46.035027 88.889546 
L 46.196781 12.747406 
L 46.238884 14.43396 
L 46.319135 42.754346 
L 46.724519 262.938447 
L 46.758417 256.687043 
L 46.894272 186.982623 
L 47.215386 12.513609 
L 47.293695 21.52926 
L 47.496223 134.042972 
L 47.781506 264.054956 
L 47.80406 263.544014 
L 47.88155 247.944345 
L 48.169456 82.121301 
L 48.381395 12.268773 
L 48.469542 23.294651 
L 48.642478 102.258256 
L 49.003389 263.217602 
L 49.028755 264.104119 
L 49.076495 260.911811 
L 49.244401 205.544474 
L 49.647756 18.49404 
L 49.735514 12.536546 
L 49.765548 14.749178 
L 49.916258 55.227137 
L 50.48878 263.530301 
L 50.506543 262.345828 
L 50.665748 225.446425 
L 51.276345 12.258051 
L 51.328444 15.07241 
L 51.496975 53.639909 
L 52.169725 263.699471 
L 52.183007 263.108838 
L 52.288275 249.558838 
L 52.568651 156.322136 
L 52.986675 20.166904 
L 53.109115 12.300173 
L 53.231429 22.944056 
L 53.434651 74.831319 
L 54.042846 259.114087 
L 54.153518 264.014433 
L 54.183126 263.154129 
L 54.3339 245.31898 
L 54.585737 176.69947 
L 55.123386 23.2805 
L 55.281831 12.238278 
L 55.327415 13.074596 
L 55.437204 22.218878 
L 55.661674 67.669691 
L 56.455271 261.342817 
L 56.532518 264.061944 
L 56.58183 263.584118 
L 56.743208 250.442376 
L 57.034814 190.355035 
L 57.761928 21.320846 
L 57.926323 12.289387 
L 58.012846 13.757275 
L 58.172915 27.256557 
L 58.477441 83.915488 
L 59.287874 254.169511 
L 59.475444 264.009617 
L 59.522008 263.94581 
L 59.537685 263.701105 
L 59.672419 257.085958 
L 59.912771 227.239351 
L 60.393869 126.510223 
L 60.939043 28.666709 
L 61.195918 12.595038 
L 61.272813 12.429291 
L 61.351064 14.443694 
L 61.545024 28.408391 
L 61.841044 70.171516 
L 63.007759 258.30124 
L 63.226248 264.066395 
L 63.306413 262.797152 
L 63.48415 253.792041 
L 63.822849 216.311519 
L 65.260692 16.188942 
L 65.446498 12.239715 
L 65.543798 13.159667 
L 65.718268 19.765902 
L 65.994967 42.016537 
L 66.40058 93.921817 
L 67.518921 243.329546 
L 67.86615 262.051375 
L 68.052783 264.039439 
L 68.114055 263.456143 
L 68.326083 256.895698 
L 68.623521 236.876097 
L 69.063604 189.725703 
L 70.388559 35.289507 
L 70.748878 16.333659 
L 70.984592 12.274874 
L 71.023566 12.24892 
L 71.171602 13.790128 
L 71.405061 21.295058 
L 71.757612 43.128743 
L 72.292688 93.916208 
L 73.693662 235.343653 
L 74.097878 256.624007 
L 74.384548 263.384238 
L 74.50985 264.103499 
L 74.622 263.606153 
L 74.765599 261.430303 
L 75.005304 254.122216 
L 75.377262 234.623441 
L 75.941172 190.750938 
L 77.745024 38.656939 
L 78.201108 19.300739 
L 78.537426 12.89422 
L 78.69564 12.240339 
L 78.767064 12.434266 
L 78.932053 14.023112 
L 79.183472 19.397295 
L 79.584261 34.702085 
L 80.092646 63.887924 
L 81.013668 132.616549 
L 82.211541 218.100939 
L 82.83079 247.577983 
L 83.275252 259.827943 
L 83.57288 263.573514 
L 83.760245 264.092029 
L 83.777547 264.06905 
L 83.910714 263.496585 
L 84.158435 260.609182 
L 84.502343 252.87786 
L 84.933777 237.693587 
L 85.532681 208.489043 
L 86.623257 141.869912 
L 87.922951 65.656327 
L 88.664694 34.459245 
L 89.207011 19.872669 
L 89.626687 13.792061 
L 89.893346 12.320148 
L 90.008958 12.253173 
L 90.034472 12.284397 
L 90.184504 12.80085 
L 90.405321 14.577122 
L 90.74349 19.547697 
L 91.192895 30.045152 
L 91.776372 49.37975 
L 92.603863 84.983254 
L 95.707493 227.174254 
L 96.451868 248.065254 
L 96.980757 257.786325 
L 97.413403 262.430678 
L 97.738523 263.95837 
L 97.9109 264.094455 
L 98.078761 263.785897 
L 98.341588 262.447091 
L 98.650274 259.584607 
L 99.095244 253.144405 
L 99.676546 241.004736 
L 100.40812 220.69618 
L 101.470155 184.155929 
L 104.869968 61.805305 
L 105.784029 38.642141 
L 106.551045 24.570351 
L 107.0985 17.740312 
L 107.585616 13.95683 
L 107.951554 12.527622 
L 108.200449 12.237605 
L 108.391013 12.382349 
L 108.650407 13.080715 
L 108.982178 14.794449 
L 109.39004 18.112993 
L 109.942015 24.599578 
L 110.627789 35.544222 
L 111.521517 53.852268 
L 112.68725 82.814118 
L 114.955147 146.29677 
L 116.783249 194.478685 
L 118.002893 221.25076 
L 119.041641 239.394262 
L 119.914051 250.904703 
L 120.624409 257.640277 
L 121.189638 261.289192 
L 121.712028 263.323168 
L 122.062292 263.978111 
L 122.351602 264.097972 
L 122.605736 263.894646 
L 122.899419 263.30731 
L 123.255328 262.101582 
L 123.773013 259.416638 
L 124.412175 254.662296 
L 125.18302 246.985711 
L 126.135221 234.922129 
L 127.278965 217.329349 
L 128.830612 189.586685 
L 132.17642 124.187261 
L 134.273835 86.000232 
L 135.771131 62.467778 
L 137.090362 45.094477 
L 138.209206 33.125994 
L 139.174801 24.949526 
L 140.05453 19.271082 
L 140.821961 15.696608 
L 141.404 13.832993 
L 141.976906 12.699998 
L 142.392475 12.305155 
L 142.751832 12.247364 
L 143.096306 12.43417 
L 143.459334 12.882388 
L 143.936721 13.85462 
L 144.52066 15.6156 
L 145.183011 18.340635 
L 146.002759 22.719867 
L 146.979626 29.275043 
L 148.072183 38.141353 
L 149.382432 50.596166 
L 151.055001 68.772837 
L 153.290983 95.725747 
L 160.252548 181.35501 
L 162.286518 202.7949 
L 164.043105 219.040914 
L 165.615465 231.580405 
L 167.013607 241.043747 
L 168.316093 248.38985 
L 169.475487 253.725888 
L 170.508211 257.528694 
L 171.444237 260.211462 
L 172.294117 262.02911 
L 173.063189 263.177344 
L 173.740866 263.806894 
L 174.339787 264.072062 
L 174.915937 264.075271 
L 175.502639 263.830841 
L 176.146015 263.283172 
L 176.860062 262.343519 
L 177.642898 260.926981 
L 178.556472 258.785819 
L 179.622573 255.659614 
L 180.816622 251.411808 
L 182.1925 245.625101 
L 183.678651 238.418021 
L 185.444008 228.744809 
L 187.572368 215.771171 
L 190.197769 198.307113 
L 194.03769 171.098987 
L 201.09386 121.006532 
L 204.326785 99.792562 
L 207.06052 83.283379 
L 209.506073 69.819155 
L 211.737761 58.707417 
L 213.850664 49.274471 
L 215.84627 41.363375 
L 217.704185 34.879803 
L 219.461303 29.53022 
L 221.160082 25.075174 
L 222.705475 21.625762 
L 224.181185 18.858269 
L 225.559399 16.727807 
L 226.870389 15.09843 
L 228.111841 13.90315 
L 229.302906 13.065542 
L 230.408999 12.55116 
L 231.49121 12.286334 
L 232.536899 12.247866 
L 233.650427 12.434468 
L 234.781535 12.856251 
L 236.010301 13.569793 
L 237.281158 14.576025 
L 238.645553 15.945988 
L 240.14033 17.773376 
L 241.747895 20.097203 
L 243.537434 23.09133 
L 245.50392 26.837058 
L 247.644978 31.407297 
L 249.999001 36.959431 
L 252.70914 43.945373 
L 255.745355 52.404433 
L 259.317881 63.035503 
L 263.821223 77.181596 
L 270.601141 99.311181 
L 280.965151 133.07321 
L 286.388789 149.947634 
L 291.041263 163.716567 
L 295.32027 175.695901 
L 299.266095 186.100851 
L 303.054767 195.475783 
L 306.674025 203.847175 
L 310.119161 211.274395 
L 313.514636 218.073282 
L 316.813061 224.182376 
L 320.010503 229.641627 
L 323.154948 234.571625 
L 326.152516 238.873097 
L 329.164725 242.812066 
L 332.091452 246.279692 
L 334.991001 249.374865 
L 337.797352 252.057218 
L 340.640956 254.470418 
L 343.436845 256.553744 
L 346.202453 258.341915 
L 348.999309 259.884515 
L 351.781304 261.163805 
L 354.561954 262.198295 
L 357.325574 262.994507 
L 360.16036 263.5813 
L 362.990796 263.945284 
L 365.897473 264.099158 
L 368.87122 264.037369 
L 371.998147 263.745862 
L 375.207914 263.218667 
L 378.508239 262.45023 
L 381.943198 261.422249 
L 385.543292 260.112132 
L 389.327776 258.497108 
L 393.367447 256.525935 
L 397.578949 254.223014 
L 402.145699 251.467682 
L 406.97785 248.291237 
L 412.295165 244.523505 
L 418.092033 240.136009 
L 424.493209 235.006867 
L 431.781698 228.874122 
L 440.282441 221.423612 
L 451.198204 211.543314 
L 471.122214 193.14005 
L 488.700791 177.041052 
L 501.098533 165.986105 
L 512.119522 156.45319 
L 522.37226 147.87559 
L 532.183226 139.954842 
L 534.444669 138.170759 
L 534.444669 138.170759 
" style="fill:none;stroke:#0000ff;stroke-linecap:square;"/>
   </g>
   <g id="patch_3">
    <path d="M 28.343389 138.170759 
L 544.368223 138.170759 
" style="fill:none;stroke:#000000;stroke-linecap:square;stroke-linejoin:miter;stroke-width:0.8;"/>
   </g>
   <g id="patch_4">
    <path d="M 30.710938 269.141529 
L 30.710938 7.2 
" style="fill:none;stroke:#000000;stroke-linecap:square;stroke-linejoin:miter;stroke-width:0.8;"/>
   </g>
   <g id="matplotlib.axis_1">
    <g id="xtick_1">
     <g id="line2d_2">
      <defs>
       <path d="M 0 0 
L 0 -4 
" id="mbfc55aaead" style="stroke:#000000;stroke-width:0.5;"/>
      </defs>
      <g>
       <use style="stroke:#000000;stroke-width:0.5;" x="30.7109375" xlink:href="#mbfc55aaead" y="138.170758943"/>
      </g>
     </g>
    </g>
    <g id="xtick_2">
     <g id="line2d_3">
      <g>
       <use style="stroke:#000000;stroke-width:0.5;" x="131.457683757" xlink:href="#mbfc55aaead" y="138.170758943"/>
      </g>
     </g>
     <g id="text_1">
      <!-- 0.2 -->
      <defs>
       <path d="M 19.1875 8.296875 
L 53.609375 8.296875 
L 53.609375 0 
L 7.328125 0 
L 7.328125 8.296875 
Q 12.9375 14.109375 22.625 23.890625 
Q 32.328125 33.6875 34.8125 36.53125 
Q 39.546875 41.84375 41.421875 45.53125 
Q 43.3125 49.21875 43.3125 52.78125 
Q 43.3125 58.59375 39.234375 62.25 
Q 35.15625 65.921875 28.609375 65.921875 
Q 23.96875 65.921875 18.8125 64.3125 
Q 13.671875 62.703125 7.8125 59.421875 
L 7.8125 69.390625 
Q 13.765625 71.78125 18.9375 73 
Q 24.125 74.21875 28.421875 74.21875 
Q 39.75 74.21875 46.484375 68.546875 
Q 53.21875 62.890625 53.21875 53.421875 
Q 53.21875 48.921875 51.53125 44.890625 
Q 49.859375 40.875 45.40625 35.40625 
Q 44.1875 33.984375 37.640625 27.21875 
Q 31.109375 20.453125 19.1875 8.296875 
" id="BitstreamVeraSans-Roman-32"/>
       <path d="M 31.78125 66.40625 
Q 24.171875 66.40625 20.328125 58.90625 
Q 16.5 51.421875 16.5 36.375 
Q 16.5 21.390625 20.328125 13.890625 
Q 24.171875 6.390625 31.78125 6.390625 
Q 39.453125 6.390625 43.28125 13.890625 
Q 47.125 21.390625 47.125 36.375 
Q 47.125 51.421875 43.28125 58.90625 
Q 39.453125 66.40625 31.78125 66.40625 
M 31.78125 74.21875 
Q 44.046875 74.21875 50.515625 64.515625 
Q 56.984375 54.828125 56.984375 36.375 
Q 56.984375 17.96875 50.515625 8.265625 
Q 44.046875 -1.421875 31.78125 -1.421875 
Q 19.53125 -1.421875 13.0625 8.265625 
Q 6.59375 17.96875 6.59375 36.375 
Q 6.59375 54.828125 13.0625 64.515625 
Q 19.53125 74.21875 31.78125 74.21875 
" id="BitstreamVeraSans-Roman-30"/>
       <path d="M 10.6875 12.40625 
L 21 12.40625 
L 21 0 
L 10.6875 0 
z
" id="BitstreamVeraSans-Roman-2e"/>
      </defs>
      <g transform="translate(123.506121257 149.769196443)scale(0.1 -0.1)">
       <use xlink:href="#BitstreamVeraSans-Roman-30"/>
       <use x="63.623046875" xlink:href="#BitstreamVeraSans-Roman-2e"/>
       <use x="95.41015625" xlink:href="#BitstreamVeraSans-Roman-32"/>
      </g>
     </g>
    </g>
    <g id="xtick_3">
     <g id="line2d_4">
      <g>
       <use style="stroke:#000000;stroke-width:0.5;" x="232.204430014" xlink:href="#mbfc55aaead" y="138.170758943"/>
      </g>
     </g>
     <g id="text_2">
      <!-- 0.4 -->
      <defs>
       <path d="M 37.796875 64.3125 
L 12.890625 25.390625 
L 37.796875 25.390625 
z
M 35.203125 72.90625 
L 47.609375 72.90625 
L 47.609375 25.390625 
L 58.015625 25.390625 
L 58.015625 17.1875 
L 47.609375 17.1875 
L 47.609375 0 
L 37.796875 0 
L 37.796875 17.1875 
L 4.890625 17.1875 
L 4.890625 26.703125 
z
" id="BitstreamVeraSans-Roman-34"/>
      </defs>
      <g transform="translate(224.252867514 149.769196443)scale(0.1 -0.1)">
       <use xlink:href="#BitstreamVeraSans-Roman-30"/>
       <use x="63.623046875" xlink:href="#BitstreamVeraSans-Roman-2e"/>
       <use x="95.41015625" xlink:href="#BitstreamVeraSans-Roman-34"/>
      </g>
     </g>
    </g>
    <g id="xtick_4">
     <g id="line2d_5">
      <g>
       <use style="stroke:#000000;stroke-width:0.5;" x="332.95117627" xlink:href="#mbfc55aaead" y="138.170758943"/>
      </g>
     </g>
     <g id="text_3">
      <!-- 0.6 -->
      <defs>
       <path d="M 33.015625 40.375 
Q 26.375 40.375 22.484375 35.828125 
Q 18.609375 31.296875 18.609375 23.390625 
Q 18.609375 15.53125 22.484375 10.953125 
Q 26.375 6.390625 33.015625 6.390625 
Q 39.65625 6.390625 43.53125 10.953125 
Q 47.40625 15.53125 47.40625 23.390625 
Q 47.40625 31.296875 43.53125 35.828125 
Q 39.65625 40.375 33.015625 40.375 
M 52.59375 71.296875 
L 52.59375 62.3125 
Q 48.875 64.0625 45.09375 64.984375 
Q 41.3125 65.921875 37.59375 65.921875 
Q 27.828125 65.921875 22.671875 59.328125 
Q 17.53125 52.734375 16.796875 39.40625 
Q 19.671875 43.65625 24.015625 45.921875 
Q 28.375 48.1875 33.59375 48.1875 
Q 44.578125 48.1875 50.953125 41.515625 
Q 57.328125 34.859375 57.328125 23.390625 
Q 57.328125 12.15625 50.6875 5.359375 
Q 44.046875 -1.421875 33.015625 -1.421875 
Q 20.359375 -1.421875 13.671875 8.265625 
Q 6.984375 17.96875 6.984375 36.375 
Q 6.984375 53.65625 15.1875 63.9375 
Q 23.390625 74.21875 37.203125 74.21875 
Q 40.921875 74.21875 44.703125 73.484375 
Q 48.484375 72.75 52.59375 71.296875 
" id="BitstreamVeraSans-Roman-36"/>
      </defs>
      <g transform="translate(324.99961377 149.769196443)scale(0.1 -0.1)">
       <use xlink:href="#BitstreamVeraSans-Roman-30"/>
       <use x="63.623046875" xlink:href="#BitstreamVeraSans-Roman-2e"/>
       <use x="95.41015625" xlink:href="#BitstreamVeraSans-Roman-36"/>
      </g>
     </g>
    </g>
    <g id="xtick_5">
     <g id="line2d_6">
      <g>
       <use style="stroke:#000000;stroke-width:0.5;" x="433.697922527" xlink:href="#mbfc55aaead" y="138.170758943"/>
      </g>
     </g>
     <g id="text_4">
      <!-- 0.8 -->
      <defs>
       <path d="M 31.78125 34.625 
Q 24.75 34.625 20.71875 30.859375 
Q 16.703125 27.09375 16.703125 20.515625 
Q 16.703125 13.921875 20.71875 10.15625 
Q 24.75 6.390625 31.78125 6.390625 
Q 38.8125 6.390625 42.859375 10.171875 
Q 46.921875 13.96875 46.921875 20.515625 
Q 46.921875 27.09375 42.890625 30.859375 
Q 38.875 34.625 31.78125 34.625 
M 21.921875 38.8125 
Q 15.578125 40.375 12.03125 44.71875 
Q 8.5 49.078125 8.5 55.328125 
Q 8.5 64.0625 14.71875 69.140625 
Q 20.953125 74.21875 31.78125 74.21875 
Q 42.671875 74.21875 48.875 69.140625 
Q 55.078125 64.0625 55.078125 55.328125 
Q 55.078125 49.078125 51.53125 44.71875 
Q 48 40.375 41.703125 38.8125 
Q 48.828125 37.15625 52.796875 32.3125 
Q 56.78125 27.484375 56.78125 20.515625 
Q 56.78125 9.90625 50.3125 4.234375 
Q 43.84375 -1.421875 31.78125 -1.421875 
Q 19.734375 -1.421875 13.25 4.234375 
Q 6.78125 9.90625 6.78125 20.515625 
Q 6.78125 27.484375 10.78125 32.3125 
Q 14.796875 37.15625 21.921875 38.8125 
M 18.3125 54.390625 
Q 18.3125 48.734375 21.84375 45.5625 
Q 25.390625 42.390625 31.78125 42.390625 
Q 38.140625 42.390625 41.71875 45.5625 
Q 45.3125 48.734375 45.3125 54.390625 
Q 45.3125 60.0625 41.71875 63.234375 
Q 38.140625 66.40625 31.78125 66.40625 
Q 25.390625 66.40625 21.84375 63.234375 
Q 18.3125 60.0625 18.3125 54.390625 
" id="BitstreamVeraSans-Roman-38"/>
      </defs>
      <g transform="translate(425.746360027 149.769196443)scale(0.1 -0.1)">
       <use xlink:href="#BitstreamVeraSans-Roman-30"/>
       <use x="63.623046875" xlink:href="#BitstreamVeraSans-Roman-2e"/>
       <use x="95.41015625" xlink:href="#BitstreamVeraSans-Roman-38"/>
      </g>
     </g>
    </g>
    <g id="xtick_6">
     <g id="line2d_7">
      <g>
       <use style="stroke:#000000;stroke-width:0.5;" x="534.444668784" xlink:href="#mbfc55aaead" y="138.170758943"/>
      </g>
     </g>
     <g id="text_5">
      <!-- 1 -->
      <defs>
       <path d="M 12.40625 8.296875 
L 28.515625 8.296875 
L 28.515625 63.921875 
L 10.984375 60.40625 
L 10.984375 69.390625 
L 28.421875 72.90625 
L 38.28125 72.90625 
L 38.28125 8.296875 
L 54.390625 8.296875 
L 54.390625 0 
L 12.40625 0 
z
" id="BitstreamVeraSans-Roman-31"/>
      </defs>
      <g transform="translate(531.263418784 149.769196443)scale(0.1 -0.1)">
       <use xlink:href="#BitstreamVeraSans-Roman-31"/>
      </g>
     </g>
    </g>
    <g id="xtick_7">
     <g id="line2d_8">
      <defs>
       <path d="M 0 0 
L 0 -2 
" id="m0c313d877c" style="stroke:#000000;stroke-width:0.5;"/>
      </defs>
      <g>
       <use style="stroke:#000000;stroke-width:0.5;" x="55.8976240642" xlink:href="#m0c313d877c" y="138.170758943"/>
      </g>
     </g>
    </g>
    <g id="xtick_8">
     <g id="line2d_9">
      <g>
       <use style="stroke:#000000;stroke-width:0.5;" x="81.0843106284" xlink:href="#m0c313d877c" y="138.170758943"/>
      </g>
     </g>
    </g>
    <g id="xtick_9">
     <g id="line2d_10">
      <g>
       <use style="stroke:#000000;stroke-width:0.5;" x="106.270997193" xlink:href="#m0c313d877c" y="138.170758943"/>
      </g>
     </g>
    </g>
    <g id="xtick_10">
     <g id="line2d_11">
      <g>
       <use style="stroke:#000000;stroke-width:0.5;" x="131.457683757" xlink:href="#m0c313d877c" y="138.170758943"/>
      </g>
     </g>
    </g>
    <g id="xtick_11">
     <g id="line2d_12">
      <g>
       <use style="stroke:#000000;stroke-width:0.5;" x="156.644370321" xlink:href="#m0c313d877c" y="138.170758943"/>
      </g>
     </g>
    </g>
    <g id="xtick_12">
     <g id="line2d_13">
      <g>
       <use style="stroke:#000000;stroke-width:0.5;" x="181.831056885" xlink:href="#m0c313d877c" y="138.170758943"/>
      </g>
     </g>
    </g>
    <g id="xtick_13">
     <g id="line2d_14">
      <g>
       <use style="stroke:#000000;stroke-width:0.5;" x="207.017743449" xlink:href="#m0c313d877c" y="138.170758943"/>
      </g>
     </g>
    </g>
    <g id="xtick_14">
     <g id="line2d_15">
      <g>
       <use style="stroke:#000000;stroke-width:0.5;" x="232.204430014" xlink:href="#m0c313d877c" y="138.170758943"/>
      </g>
     </g>
    </g>
    <g id="xtick_15">
     <g id="line2d_16">
      <g>
       <use style="stroke:#000000;stroke-width:0.5;" x="257.391116578" xlink:href="#m0c313d877c" y="138.170758943"/>
      </g>
     </g>
    </g>
    <g id="xtick_16">
     <g id="line2d_17">
      <g>
       <use style="stroke:#000000;stroke-width:0.5;" x="282.577803142" xlink:href="#m0c313d877c" y="138.170758943"/>
      </g>
     </g>
    </g>
    <g id="xtick_17">
     <g id="line2d_18">
      <g>
       <use style="stroke:#000000;stroke-width:0.5;" x="307.764489706" xlink:href="#m0c313d877c" y="138.170758943"/>
      </g>
     </g>
    </g>
    <g id="xtick_18">
     <g id="line2d_19">
      <g>
       <use style="stroke:#000000;stroke-width:0.5;" x="332.95117627" xlink:href="#m0c313d877c" y="138.170758943"/>
      </g>
     </g>
    </g>
    <g id="xtick_19">
     <g id="line2d_20">
      <g>
       <use style="stroke:#000000;stroke-width:0.5;" x="358.137862835" xlink:href="#m0c313d877c" y="138.170758943"/>
      </g>
     </g>
    </g>
    <g id="xtick_20">
     <g id="line2d_21">
      <g>
       <use style="stroke:#000000;stroke-width:0.5;" x="383.324549399" xlink:href="#m0c313d877c" y="138.170758943"/>
      </g>
     </g>
    </g>
    <g id="xtick_21">
     <g id="line2d_22">
      <g>
       <use style="stroke:#000000;stroke-width:0.5;" x="408.511235963" xlink:href="#m0c313d877c" y="138.170758943"/>
      </g>
     </g>
    </g>
    <g id="xtick_22">
     <g id="line2d_23">
      <g>
       <use style="stroke:#000000;stroke-width:0.5;" x="433.697922527" xlink:href="#m0c313d877c" y="138.170758943"/>
      </g>
     </g>
    </g>
    <g id="xtick_23">
     <g id="line2d_24">
      <g>
       <use style="stroke:#000000;stroke-width:0.5;" x="458.884609092" xlink:href="#m0c313d877c" y="138.170758943"/>
      </g>
     </g>
    </g>
    <g id="xtick_24">
     <g id="line2d_25">
      <g>
       <use style="stroke:#000000;stroke-width:0.5;" x="484.071295656" xlink:href="#m0c313d877c" y="138.170758943"/>
      </g>
     </g>
    </g>
    <g id="xtick_25">
     <g id="line2d_26">
      <g>
       <use style="stroke:#000000;stroke-width:0.5;" x="509.25798222" xlink:href="#m0c313d877c" y="138.170758943"/>
      </g>
     </g>
    </g>
    <g id="xtick_26">
     <g id="line2d_27">
      <g>
       <use style="stroke:#000000;stroke-width:0.5;" x="534.444668784" xlink:href="#m0c313d877c" y="138.170758943"/>
      </g>
     </g>
    </g>
   </g>
   <g id="matplotlib.axis_2">
    <g id="ytick_1">
     <g id="line2d_28">
      <defs>
       <path d="M 0 0 
L 4 0 
" id="m893c274682" style="stroke:#000000;stroke-width:0.5;"/>
      </defs>
      <g>
       <use style="stroke:#000000;stroke-width:0.5;" x="30.7109375" xlink:href="#m893c274682" y="264.104191764"/>
      </g>
     </g>
     <g id="text_6">
      <!-- -1 -->
      <defs>
       <path d="M 4.890625 31.390625 
L 31.203125 31.390625 
L 31.203125 23.390625 
L 4.890625 23.390625 
z
" id="BitstreamVeraSans-Roman-2d"/>
      </defs>
      <g transform="translate(16.740625 266.863566764)scale(0.1 -0.1)">
       <use xlink:href="#BitstreamVeraSans-Roman-2d"/>
       <use x="36.083984375" xlink:href="#BitstreamVeraSans-Roman-31"/>
      </g>
     </g>
    </g>
    <g id="ytick_2">
     <g id="line2d_29">
      <g>
       <use style="stroke:#000000;stroke-width:0.5;" x="30.7109375" xlink:href="#m893c274682" y="201.137475353"/>
      </g>
     </g>
     <g id="text_7">
      <!-- -0.5 -->
      <defs>
       <path d="M 10.796875 72.90625 
L 49.515625 72.90625 
L 49.515625 64.59375 
L 19.828125 64.59375 
L 19.828125 46.734375 
Q 21.96875 47.46875 24.109375 47.828125 
Q 26.265625 48.1875 28.421875 48.1875 
Q 40.625 48.1875 47.75 41.5 
Q 54.890625 34.8125 54.890625 23.390625 
Q 54.890625 11.625 47.5625 5.09375 
Q 40.234375 -1.421875 26.90625 -1.421875 
Q 22.3125 -1.421875 17.546875 -0.640625 
Q 12.796875 0.140625 7.71875 1.703125 
L 7.71875 11.625 
Q 12.109375 9.234375 16.796875 8.0625 
Q 21.484375 6.890625 26.703125 6.890625 
Q 35.15625 6.890625 40.078125 11.328125 
Q 45.015625 15.765625 45.015625 23.390625 
Q 45.015625 31 40.078125 35.4375 
Q 35.15625 39.890625 26.703125 39.890625 
Q 22.75 39.890625 18.8125 39.015625 
Q 14.890625 38.140625 10.796875 36.28125 
z
" id="BitstreamVeraSans-Roman-35"/>
      </defs>
      <g transform="translate(7.2 203.896850353)scale(0.1 -0.1)">
       <use xlink:href="#BitstreamVeraSans-Roman-2d"/>
       <use x="36.083984375" xlink:href="#BitstreamVeraSans-Roman-30"/>
       <use x="99.70703125" xlink:href="#BitstreamVeraSans-Roman-2e"/>
       <use x="131.494140625" xlink:href="#BitstreamVeraSans-Roman-35"/>
      </g>
     </g>
    </g>
    <g id="ytick_3">
     <g id="line2d_30">
      <g>
       <use style="stroke:#000000;stroke-width:0.5;" x="30.7109375" xlink:href="#m893c274682" y="138.170758943"/>
      </g>
     </g>
    </g>
    <g id="ytick_4">
     <g id="line2d_31">
      <g>
       <use style="stroke:#000000;stroke-width:0.5;" x="30.7109375" xlink:href="#m893c274682" y="75.2040425324"/>
      </g>
     </g>
     <g id="text_8">
      <!-- 0.5 -->
      <g transform="translate(10.8078125 77.9634175324)scale(0.1 -0.1)">
       <use xlink:href="#BitstreamVeraSans-Roman-30"/>
       <use x="63.623046875" xlink:href="#BitstreamVeraSans-Roman-2e"/>
       <use x="95.41015625" xlink:href="#BitstreamVeraSans-Roman-35"/>
      </g>
     </g>
    </g>
    <g id="ytick_5">
     <g id="line2d_32">
      <g>
       <use style="stroke:#000000;stroke-width:0.5;" x="30.7109375" xlink:href="#m893c274682" y="12.2373261219"/>
      </g>
     </g>
     <g id="text_9">
      <!-- 1 -->
      <g transform="translate(20.3484375 14.9967011219)scale(0.1 -0.1)">
       <use xlink:href="#BitstreamVeraSans-Roman-31"/>
      </g>
     </g>
    </g>
    <g id="ytick_6">
     <g id="line2d_33">
      <defs>
       <path d="M 0 0 
L 2 0 
" id="m835a5884a8" style="stroke:#000000;stroke-width:0.5;"/>
      </defs>
      <g>
       <use style="stroke:#000000;stroke-width:0.5;" x="30.7109375" xlink:href="#m835a5884a8" y="251.510848482"/>
      </g>
     </g>
    </g>
    <g id="ytick_7">
     <g id="line2d_34">
      <g>
       <use style="stroke:#000000;stroke-width:0.5;" x="30.7109375" xlink:href="#m835a5884a8" y="238.9175052"/>
      </g>
     </g>
    </g>
    <g id="ytick_8">
     <g id="line2d_35">
      <g>
       <use style="stroke:#000000;stroke-width:0.5;" x="30.7109375" xlink:href="#m835a5884a8" y="226.324161918"/>
      </g>
     </g>
    </g>
    <g id="ytick_9">
     <g id="line2d_36">
      <g>
       <use style="stroke:#000000;stroke-width:0.5;" x="30.7109375" xlink:href="#m835a5884a8" y="213.730818636"/>
      </g>
     </g>
    </g>
    <g id="ytick_10">
     <g id="line2d_37">
      <g>
       <use style="stroke:#000000;stroke-width:0.5;" x="30.7109375" xlink:href="#m835a5884a8" y="201.137475353"/>
      </g>
     </g>
    </g>
    <g id="ytick_11">
     <g id="line2d_38">
      <g>
       <use style="stroke:#000000;stroke-width:0.5;" x="30.7109375" xlink:href="#m835a5884a8" y="188.544132071"/>
      </g>
     </g>
    </g>
    <g id="ytick_12">
     <g id="line2d_39">
      <g>
       <use style="stroke:#000000;stroke-width:0.5;" x="30.7109375" xlink:href="#m835a5884a8" y="175.950788789"/>
      </g>
     </g>
    </g>
    <g id="ytick_13">
     <g id="line2d_40">
      <g>
       <use style="stroke:#000000;stroke-width:0.5;" x="30.7109375" xlink:href="#m835a5884a8" y="163.357445507"/>
      </g>
     </g>
    </g>
    <g id="ytick_14">
     <g id="line2d_41">
      <g>
       <use style="stroke:#000000;stroke-width:0.5;" x="30.7109375" xlink:href="#m835a5884a8" y="150.764102225"/>
      </g>
     </g>
    </g>
    <g id="ytick_15">
     <g id="line2d_42">
      <g>
       <use style="stroke:#000000;stroke-width:0.5;" x="30.7109375" xlink:href="#m835a5884a8" y="138.170758943"/>
      </g>
     </g>
    </g>
    <g id="ytick_16">
     <g id="line2d_43">
      <g>
       <use style="stroke:#000000;stroke-width:0.5;" x="30.7109375" xlink:href="#m835a5884a8" y="125.577415661"/>
      </g>
     </g>
    </g>
    <g id="ytick_17">
     <g id="line2d_44">
      <g>
       <use style="stroke:#000000;stroke-width:0.5;" x="30.7109375" xlink:href="#m835a5884a8" y="112.984072379"/>
      </g>
     </g>
    </g>
    <g id="ytick_18">
     <g id="line2d_45">
      <g>
       <use style="stroke:#000000;stroke-width:0.5;" x="30.7109375" xlink:href="#m835a5884a8" y="100.390729097"/>
      </g>
     </g>
    </g>
    <g id="ytick_19">
     <g id="line2d_46">
      <g>
       <use style="stroke:#000000;stroke-width:0.5;" x="30.7109375" xlink:href="#m835a5884a8" y="87.7973858145"/>
      </g>
     </g>
    </g>
    <g id="ytick_20">
     <g id="line2d_47">
      <g>
       <use style="stroke:#000000;stroke-width:0.5;" x="30.7109375" xlink:href="#m835a5884a8" y="75.2040425324"/>
      </g>
     </g>
    </g>
    <g id="ytick_21">
     <g id="line2d_48">
      <g>
       <use style="stroke:#000000;stroke-width:0.5;" x="30.7109375" xlink:href="#m835a5884a8" y="62.6106992503"/>
      </g>
     </g>
    </g>
    <g id="ytick_22">
     <g id="line2d_49">
      <g>
       <use style="stroke:#000000;stroke-width:0.5;" x="30.7109375" xlink:href="#m835a5884a8" y="50.0173559682"/>
      </g>
     </g>
    </g>
    <g id="ytick_23">
     <g id="line2d_50">
      <g>
       <use style="stroke:#000000;stroke-width:0.5;" x="30.7109375" xlink:href="#m835a5884a8" y="37.4240126861"/>
      </g>
     </g>
    </g>
    <g id="ytick_24">
     <g id="line2d_51">
      <g>
       <use style="stroke:#000000;stroke-width:0.5;" x="30.7109375" xlink:href="#m835a5884a8" y="24.830669404"/>
      </g>
     </g>
    </g>
    <g id="ytick_25">
     <g id="line2d_52">
      <g>
       <use style="stroke:#000000;stroke-width:0.5;" x="30.7109375" xlink:href="#m835a5884a8" y="12.2373261219"/>
      </g>
     </g>
    </g>
   </g>
  </g>
 </g>
 <defs>
  <clipPath id="p1359f6f589">
   <rect height="261.941528558" width="516.024834327" x="28.343388963" y="7.2"/>
  </clipPath>
 </defs>
</svg>
